<svg version="1.1" viewBox="0 0 144 32" xmlns="http://www.w3.org/2000/svg" xmlns:xlink="http://www.w3.org/1999/xlink">
 <defs>
  <linearGradient id="a" x1="131.42" x2="63.091" y1="52.368" y2="69.637" gradientUnits="userSpaceOnUse">
   <stop stop-color="#01AB46" offset=".1705"/>
   <stop stop-color="#128A3C" offset=".499"/>
   <stop stop-color="#2F502A" offset="1"/>
  </linearGradient>
 </defs>
 <g transform="matrix(3.7795 0 0 3.7795 -30 -700)">
  <g transform="matrix(.34461 0 0 .34461 6.9373 146.14)">
   <g transform="matrix(.26458 0 0 .26458 1.6881 108.27)">
    <path d="m16.74 29.97c7.41-9.85 18.72-4 21.87-1.78 3.19 2.25 10.42 5.16 14.27 4.04 3.85-1.13 5.64-6.96 3.2-8.74-3.08-2.25-5.46 0.04-5.36 2.08 0.04 0.84 0.66 2.63-0.75 3-0.73 0.19-1.6-0.75-1.88-1.97s-0.26-2.8 0.94-4.79c2.51-4.16 10.52-3.14 11.77 2.66 1.2 5.62-2.49 9.51-6.14 10.85-5.38 1.98-12.9-0.32-16.42-3-4.45-3.39-12.95-5.47-17.55-0.09-6.66 7.79 6.76 22.71 6.76 22.71l-5.26 4.13s-1.5-2.91-4.6-9.48c-2.92-6.18-5.21-13.83-0.85-19.62z" fill="#78de89"/>
    <path d="m38.04 65.17-12.2 1.69s0.75 2.44 1.03 4.22 0.58 5.59-0.66 6.38c-2.35 1.5-4.97-1.97-11.83-1.13-3.78 0.47-9.29 2.53-9.76 7.6-0.5 5.45 5.34-0.64 9.76-1.03 3.19-0.28 4.22 3.38 4.22 3.38s7.88 6.66 8.35 5.73c0.47-0.94 22.52-17.74 22.52-17.74z" fill="#d43330"/>
    <path d="m22.75 67.42s-0.56 5.63 1.22 6.1 2.82-2.82 2.82-2.82 1.6-0.28 4.6-0.28c1.79 0 4.32 0.66 4.32 0.66s-0.6 2.43 1.03 3.28c1.97 1.03 5.91-6.38 5.91-6.38l-14.08-2.44z" fill="#fffafe"/>
    <path d="m19.37 88.16s0.94-4.22 1.22-5.16 0.84-3 1.78-3.19 2.25 1.6 2.25 1.6 3.47-2.53 4.32-3 3.38-1.5 3.38-1.5-0.09-2.41 1.31-2.63c2.44-0.38 3.1 4.5 3.1 4.5l-10.7 11.17z" fill="#fffafe"/>
    <path d="m23.03 96.37s0.99 4.93 9.01 9.71 12.95 5.63 15.91 5.91 5.91 0.28 5.91-1.13c0-1.02-2.11-2.25-4.79-2.82-2.67-0.56-3.8-1.27-3.1-2.39 1.27-2.02 7.74 2.11 13.09 2.96 5.35 0.84 16.05 3.52 17.03-0.7s-7.04-1.27-7.46-4.22c-0.42-2.96 7.88-2.67 13.09-0.99 5.21 1.69 9.71 6.34 11.68 6.62s3.4-1.26 2.82-3.52c-0.66-2.53-2.25-4.79-5.07-6.62s-15.91-7.18-15.91-7.18l-28.7-2.1-10.56 0.28z" fill="#bcce46"/>
    <path d="m32.18 51.6s-1.27-8.59 2.96-12.11 8.59-2.53 11.26-2.39 9.43 2.39 18.86 1.55c10.02-0.9 18.72-5.21 27.45-6.34s15.77 0.99 15.49 4.08c-0.28 3.1-13.09 1.69-12.11 4.93 0.99 3.24 18.44-2.53 19.71 2.67 1.33 5.47-9.06 1.98-8.87 5.07 0.28 4.65 14.78-1.69 16.61 3.8 2.11 6.34-15.49 7.04-13.23 10.84 2.25 3.8 12.39-1.13 13.09 2.96 0.61 3.54-2.3 5.82-6.48 6.9-2.89 0.75-12.47 1.11-12.39 3.66 0.14 4.36 7.88 0.42 9.71 2.67s-2.96 6.9-11.26 7.32c-5.64 0.29-10.28-1.83-10.42 0.28s5.44 2.34 7.6 3.38c3.52 1.69 4.79 3.38 3.24 6.19-1.55 2.82-4.92-0.67-7.32-0.84-3.8-0.28-8.31 1.13-11.97 1.13s-10.56-2.11-10.56-2.11 1.27 1.41 0 2.53-4.65 0.99-8.87-1.27c-4.22-2.25-7.32-2.96-8.59-2.96s-7.58 0.13-8.68-0.61c-8.73-5.91 3.89-36.56 3.89-36.56z" fill="url(#a)"/>
    <path d="m54.94 46.58s9.1-3.47 13.7-9.2c2.94-3.66 4.88-11.36 9.85-9.1 6.2 2.81-5.12 11.77-3.85 12.11 1.78 0.47 7.04-4.13 10.32-7.7s7.3-5.13 9.48-2.44c2.44 3-1.6 8.07-7.51 11.83-5.91 3.75-11.39 5.76-15.02 6.38-3.85 0.66-11.17 0.75-11.17 0.75l-7.13-0.19z" fill="#feb30b"/>
    <path d="m67.51 63.71s3.73 1.9 8.59-2.11c3.02-2.49 6.69-4.58 11.83-5.91 5.42-1.41 7.53-0.63 10.21-1.48 2.67-0.84 5.9-1.83 7.67-2.32 2.53-0.7 4.95 2.87 0.7 5.21-2.82 1.55-6.41 2.46-8.87 2.75-1.41 0.16-5.29 1.15-6.66 1.67-2.82 1.06-5.58 3.61-5.58 3.61s7.05-2.65 11.12-2.96c4.93-0.38 10.35-0.14 11.9-0.99 1.55-0.84 5.98-3.03 7.53-0.28 1.53 2.71-2.67 6.12-7.04 7.11s-9.36 0.42-14.01 1.34c-2.85 0.56-8.09 2.67-13.73 6.19-5.63 3.52-11.26 4.79-13.94 4.5-2.67-0.28-7.6 6.76-7.6 6.76l-16.33 2.11-11.4 3.94s-3.8 7.32-11.26 4.79-5.91-11.83-3.52-12.39 3.52 2.39 5.77 1.69 6.61-6.86 10.56-8.31c3.66-1.34 8.24-0.99 8.24-6.19s-11.19-4.36-13.73-4.08c-2.53 0.28-12.11 3.52-17.46-0.7s-6.78-19.52 0.28-21.54c5.91-1.69 11.26 6.05 17.03 6.05 4.65 0 5.84-3.94 10.63-8.02 3.53-3.01 7.53-4.29 10.35-2.96 2.34 1.11-5.21 3.38-3.8 3.94 0 0 5.07-1.97 9.01-2.11s4.72 0.38 5.21 1.27c0.7 1.27-3.8 1.27-2.67 2.39 1.13 1.13 5.91-0.7 9.01-0.14s3.1 2.11 2.39 2.67c-0.7 0.56-5.56 1.55-5.63 2.96-0.05 0.98 3.04 1.21 4.58 2.96 1.55 1.76 1.27 4.22 1.13 5.49-0.16 1.26-0.51 3.09-0.51 3.09z" fill="#01ab46"/>
    <path d="m46.26 52.03c-3.02 0.34-8.52-4.43-11.47 2.67-2.39 5.76 5.8 10 10.84 6.12 2.3-1.76 3.59-4.01 5.35-5.77 1.16-1.16 2.67-1.99 3.03-3.1 0.62-1.96-4.59-0.27-7.75 0.08z" fill="#78de8a"/>
    <path d="m31.97 93.49s1.06-5.98 6.48-7.88 15.27-0.28 17.46-0.99c2.18-0.7 5.23-1.87 5.84-7.6 0.49-4.65-0.99-5.07-1.27-11.05-0.33-6.97 4.22-8.67 5.77-8.59 1.27 0.07 2.25 0.92 2.32 1.9 0.1 1.42-0.14 2.25-0.14 2.25s2.5 0.5 3.03 4.5c0.77 5.91-3.66 8.52-4.01 11.68-0.35 3.17 0 8.73-5 11.54s-5.44 1.24-9.08 2.46c-1.43 0.48-3.87 1.9-6.69 1.48s-3.59-1.55-7.25-1.55c-2.83 0.02-7.46 1.85-7.46 1.85z" fill="#78de8a"/>
    <path d="m42.6 58.24c-1.22 1.48-3.64 1.82-5.12 0.87-1.53-0.98-1.35-3.63 0.09-5.35 1.45-1.72 3.81-2.02 5.21-0.84 1.4 1.17 1.25 3.59-0.18 5.32z" fill="#2a2c33"/>
    <path d="m12 51.23c-1.07 1.19-0.05 2.63 0.33 2.96s1.36 0.99 1.17 1.78c-0.19 0.8-1.41 2.39-0.52 3.14s3.19-0.66 3.47-3.33-0.89-3.85-1.5-4.41c-0.6-0.56-2.06-1.13-2.95-0.14z" fill="#44484a"/>
   </g>
   <g transform="matrix(.4217 -.040593 .040593 .4217 -21.447 61.053)">
    <path d="m55 150v2.1167h2.1167v2.1167h2.1167v2.1167h2.1167v2.1167h2.1167v2.1167h12.7v-2.1167h2.1167v-2.1167h2.1167v-2.1167h2.1167v-2.1167h2.1167v-2.1167h-14.817z" stroke-width=".26458"/>
    <g fill="#fff">
     <path d="m67.7 156.35h-2.1167v2.1167h2.1167v-1.0583z"/>
     <path d="m67.7 154.23v2.1167h2.1167v-2.1167h-1.0583z"/>
     <path d="m65.583 154.23h2.1167v-2.1167h-2.1167v1.0583z"/>
     <path d="m63.466 154.23v2.1167h2.1167v-2.1167h-1.0583z"/>
     <path d="m61.35 152.12v2.1167h2.1167v-2.1167h-1.0583z"/>
    </g>
   </g>
  </g>
  <g transform="matrix(.34461 0 0 .34461 -5.2603 156.35)" stroke-width=".26458" aria-label="咱龙了吗？">
   <path d="m87.833 89.436-1.7836 16.73-8.2183 1e-5 1.9643-18.717h1.9643c0.49671-0.96332 0.91064-1.9718 1.2418-3.0254l1.9868 0.42895c-0.13547 0.4365-0.28598 0.87301-0.45156 1.3095-0.16557 0.42145-0.35372 0.85043-0.56444 1.2869h2.0772c0.66228 0 1.1364 0.19567 1.4224 0.58702 0.30104 0.3763 0.42145 0.8429 0.36124 1.3998zm-13.795 14.788h-1.874l1.8514-17.724h2.9803c0.64723 0 1.0913 0.16557 1.3321 0.49671 0.25588 0.31609 0.35372 0.73754 0.29351 1.2644l-1.5579 14.495h-2.8674zm0.33867-3.3189h0.99342l1.3321-12.531h-0.99342zm6.8411-7.8345h4.222l0.38382-3.5899h-4.2446zm-0.58702 5.509h4.222l0.38382-3.5673h-4.222zm-0.58702 5.5541h4.222l0.38382-3.6124h-4.222z" fill="#feb30b"/>
   <path d="m89.649 106.46-1.5804-1.5579q2.4158-2.4158 3.9737-5.8477 1.5804-3.4544 2.3255-8.2183h-3.9737l0.18062-1.874h4.0414l0.56444-4.5381h2.0546l-0.51929 4.5381h7.7893l-0.2032 1.874h-7.8345q-0.94827 6.3669-3.3189 10.815 1.9643-1.0612 3.7705-2.5513l0.74507-7.1797h2.0094l-0.51929 5.1929q0.99342-1.016 1.8514-2.1223 0.88054-1.1063 1.603-2.2804l1.5353 1.1515q-1.0386 1.6708-2.3932 3.2286-1.3547 1.5353-2.89 2.89l-0.13547 1.2869q-0.15804 1.4676 0.06773 2.1223 0.22578 0.63218 1.016 0.63218 0.5193 0 0.90312-0.33867t0.69991-1.1515q0.31609-0.83538 0.63218-2.3029l1.8965 0.38383q-0.56445 2.9577-1.5353 4.2446-0.94826 1.3095-2.6868 1.3095-1.6256 0-2.4384-0.99343-0.8128-0.97084-0.6096-3.4092-1.9191 1.3772-3.7931 2.3029l-0.42898-1.174q-1.2418 1.9868-2.7996 3.5673zm13.953-19.259-1.2869 1.4224q-0.83537-0.88053-1.6482-1.5579-0.79022-0.67733-1.445-1.1063l1.2644-1.4676q0.79022 0.51929 1.603 1.2418 0.8128 0.69991 1.5127 1.4676z" fill="#d43330"/>
   <g fill="#feb30b">
    <path d="m115.4 102.1q-0.15804 1.9191-1.016 3.048-0.85795 1.1515-2.6416 1.1515-1.3321 0-2.19-0.94826-0.85795-0.92569-1.1966-2.6868l2.0546-0.49671q0.24836 1.0386 0.6096 1.4901 0.36125 0.42898 0.88053 0.42898 0.56445 0 0.94827-0.47414 0.38382-0.47413 0.47414-1.7385l0.69991-8.8505 4.1543-5.1252h-9.6859l0.24835-2.032h10.589q0.74507 0 1.1515 0.42898 0.4064 0.4064 0.42898 0.97084 0.0451 0.56444-0.36125 1.0612l-4.493 5.3961z"/>
    <path d="m132.5 88.285-1.1289 5.8025h2.7319l1.2192-6.7959h-5.3284l0.2032-1.874h5.7348q0.79022 0 1.1515 0.51929 0.36124 0.49671 0.2032 1.3321l-1.2418 6.8185h0.0226q0.99343 0 1.3095 0.51929 0.33866 0.51929 0.24835 1.3095l-0.67733 6.1637q-0.13547 1.1966-0.54187 2.1449-0.38382 0.94826-1.174 1.4901-0.76765 0.56445-2.0546 0.58702-0.90312 0-1.6482-0.45155-0.74507-0.45156-1.2418-1.2869-0.47414-0.8128-0.6096-1.8514l1.9643-0.47413q0.24835 1.0837 0.65475 1.5353t1.0386 0.45156q0.74507 0 1.174-0.58703 0.42897-0.58702 0.54186-1.6933l0.63218-5.9605h-6.4798l1.5127-7.699zm-8.3764 15.94h-1.7611l1.9191-18.288h3.0932q0.92569 0 1.2644 0.49671 0.36124 0.47413 0.27093 1.2418l-1.6256 15.082h-3.0028zm0.36124-3.4092h1.2418l1.3998-12.937h-1.2869zm10.183-2.7545-0.22578 1.9643h-5.9831l0.2032-1.9643z"/>
    <path d="m143.03 100.18h-1.8062q0.0903-1.6482 0.47413-2.6868 0.38382-1.0386 0.92569-1.7159 0.54187-0.69991 1.1289-1.2418 0.58702-0.56444 1.0612-1.1966 0.49671-0.65476 0.76764-1.6482 0.31609-1.174 0.0452-2.0094-0.27094-0.83538-1.2869-0.83538-0.65475 0-1.1515 0.56444-0.49672 0.56444-0.83538 1.8288l-2.0997-0.49671q0.42898-1.8062 1.4676-2.9577 1.0386-1.1515 2.9577-1.1063 1.5353 0.02258 2.3707 0.76764 0.83538 0.74507 1.0612 1.8965 0.22577 1.1289-0.0903 2.3932-0.29351 1.1515-0.85795 1.9868-0.54187 0.8128-1.1966 1.4901-0.65475 0.65476-1.2869 1.3321t-1.0837 1.5353q-0.45156 0.85796-0.56445 2.0997zm-1.3772 5.1929q-0.65475 0-1.0386-0.45155-0.36125-0.45156-0.24836-1.2644 0.11289-0.79022 0.58702-1.2418 0.49671-0.45155 1.1289-0.45155 0.65476 0 0.99343 0.45155 0.36124 0.45156 0.24835 1.2418-0.11289 0.8128-0.58702 1.2644-0.45156 0.45155-1.0837 0.45155z"/>
   </g>
  </g>
 </g>
</svg>
