<svg width="252" height="32" version="1.1" viewBox="0 0 66.675 8.4667" xmlns="http://www.w3.org/2000/svg" xmlns:xlink="http://www.w3.org/1999/xlink">
 <defs>
  <linearGradient id="a" x1="131.42" x2="63.091" y1="52.368" y2="69.637" gradientUnits="userSpaceOnUse">
   <stop stop-color="#01AB46" offset=".1705"/>
   <stop stop-color="#128A3C" offset=".499"/>
   <stop stop-color="#2F502A" offset="1"/>
  </linearGradient>
 </defs>
 <g transform="translate(-7.9375 -119.06)">
  <text transform="skewX(-6)" x="51.08997" y="133.90598" display="none" fill="#000000" font-family="Oswald" font-size="22.578px" stroke-width=".26458" style="font-variant-caps:normal;font-variant-east-asian:normal;font-variant-ligatures:normal;font-variant-numeric:normal;font-variation-settings:'wght' 500;line-height:1.25" xml:space="preserve"><tspan x="0" y="0" font-family="Oswald" font-size="22.578px" stroke-width=".26458" style="font-variant-caps:normal;font-variant-east-asian:normal;font-variant-ligatures:normal;font-variant-numeric:normal;font-variation-settings:'wght' 500">AREWELOONGYET?</tspan></text>
  <g transform="matrix(.34461 0 0 .34461 6.9373 79.993)">
   <g transform="matrix(.26458 0 0 .26458 1.6881 108.27)">
    <path d="m16.74 29.97c7.41-9.85 18.72-4 21.87-1.78 3.19 2.25 10.42 5.16 14.27 4.04 3.85-1.13 5.64-6.96 3.2-8.74-3.08-2.25-5.46 0.04-5.36 2.08 0.04 0.84 0.66 2.63-0.75 3-0.73 0.19-1.6-0.75-1.88-1.97s-0.26-2.8 0.94-4.79c2.51-4.16 10.52-3.14 11.77 2.66 1.2 5.62-2.49 9.51-6.14 10.85-5.38 1.98-12.9-0.32-16.42-3-4.45-3.39-12.95-5.47-17.55-0.09-6.66 7.79 6.76 22.71 6.76 22.71l-5.26 4.13s-1.5-2.91-4.6-9.48c-2.92-6.18-5.21-13.83-0.85-19.62z" fill="#78de89"/>
    <path d="m38.04 65.17-12.2 1.69s0.75 2.44 1.03 4.22 0.58 5.59-0.66 6.38c-2.35 1.5-4.97-1.97-11.83-1.13-3.78 0.47-9.29 2.53-9.76 7.6-0.5 5.45 5.34-0.64 9.76-1.03 3.19-0.28 4.22 3.38 4.22 3.38s7.88 6.66 8.35 5.73c0.47-0.94 22.52-17.74 22.52-17.74z" fill="#d43330"/>
    <path d="m22.75 67.42s-0.56 5.63 1.22 6.1 2.82-2.82 2.82-2.82 1.6-0.28 4.6-0.28c1.79 0 4.32 0.66 4.32 0.66s-0.6 2.43 1.03 3.28c1.97 1.03 5.91-6.38 5.91-6.38l-14.08-2.44z" fill="#fffafe"/>
    <path d="m19.37 88.16s0.94-4.22 1.22-5.16 0.84-3 1.78-3.19 2.25 1.6 2.25 1.6 3.47-2.53 4.32-3 3.38-1.5 3.38-1.5-0.09-2.41 1.31-2.63c2.44-0.38 3.1 4.5 3.1 4.5l-10.7 11.17z" fill="#fffafe"/>
    <path d="m23.03 96.37s0.99 4.93 9.01 9.71 12.95 5.63 15.91 5.91 5.91 0.28 5.91-1.13c0-1.02-2.11-2.25-4.79-2.82-2.67-0.56-3.8-1.27-3.1-2.39 1.27-2.02 7.74 2.11 13.09 2.96 5.35 0.84 16.05 3.52 17.03-0.7s-7.04-1.27-7.46-4.22c-0.42-2.96 7.88-2.67 13.09-0.99 5.21 1.69 9.71 6.34 11.68 6.62s3.4-1.26 2.82-3.52c-0.66-2.53-2.25-4.79-5.07-6.62s-15.91-7.18-15.91-7.18l-28.7-2.1-10.56 0.28z" fill="#bcce46"/>
    <path d="m32.18 51.6s-1.27-8.59 2.96-12.11 8.59-2.53 11.26-2.39 9.43 2.39 18.86 1.55c10.02-0.9 18.72-5.21 27.45-6.34s15.77 0.99 15.49 4.08c-0.28 3.1-13.09 1.69-12.11 4.93 0.99 3.24 18.44-2.53 19.71 2.67 1.33 5.47-9.06 1.98-8.87 5.07 0.28 4.65 14.78-1.69 16.61 3.8 2.11 6.34-15.49 7.04-13.23 10.84 2.25 3.8 12.39-1.13 13.09 2.96 0.61 3.54-2.3 5.82-6.48 6.9-2.89 0.75-12.47 1.11-12.39 3.66 0.14 4.36 7.88 0.42 9.71 2.67s-2.96 6.9-11.26 7.32c-5.64 0.29-10.28-1.83-10.42 0.28s5.44 2.34 7.6 3.38c3.52 1.69 4.79 3.38 3.24 6.19-1.55 2.82-4.92-0.67-7.32-0.84-3.8-0.28-8.31 1.13-11.97 1.13s-10.56-2.11-10.56-2.11 1.27 1.41 0 2.53-4.65 0.99-8.87-1.27c-4.22-2.25-7.32-2.96-8.59-2.96s-7.58 0.13-8.68-0.61c-8.73-5.91 3.89-36.56 3.89-36.56z" fill="url(#a)"/>
    <path d="m54.94 46.58s9.1-3.47 13.7-9.2c2.94-3.66 4.88-11.36 9.85-9.1 6.2 2.81-5.12 11.77-3.85 12.11 1.78 0.47 7.04-4.13 10.32-7.7s7.3-5.13 9.48-2.44c2.44 3-1.6 8.07-7.51 11.83-5.91 3.75-11.39 5.76-15.02 6.38-3.85 0.66-11.17 0.75-11.17 0.75l-7.13-0.19z" fill="#feb30b"/>
    <path d="m67.51 63.71s3.73 1.9 8.59-2.11c3.02-2.49 6.69-4.58 11.83-5.91 5.42-1.41 7.53-0.63 10.21-1.48 2.67-0.84 5.9-1.83 7.67-2.32 2.53-0.7 4.95 2.87 0.7 5.21-2.82 1.55-6.41 2.46-8.87 2.75-1.41 0.16-5.29 1.15-6.66 1.67-2.82 1.06-5.58 3.61-5.58 3.61s7.05-2.65 11.12-2.96c4.93-0.38 10.35-0.14 11.9-0.99 1.55-0.84 5.98-3.03 7.53-0.28 1.53 2.71-2.67 6.12-7.04 7.11s-9.36 0.42-14.01 1.34c-2.85 0.56-8.09 2.67-13.73 6.19-5.63 3.52-11.26 4.79-13.94 4.5-2.67-0.28-7.6 6.76-7.6 6.76l-16.33 2.11-11.4 3.94s-3.8 7.32-11.26 4.79-5.91-11.83-3.52-12.39 3.52 2.39 5.77 1.69 6.61-6.86 10.56-8.31c3.66-1.34 8.24-0.99 8.24-6.19s-11.19-4.36-13.73-4.08c-2.53 0.28-12.11 3.52-17.46-0.7s-6.78-19.52 0.28-21.54c5.91-1.69 11.26 6.05 17.03 6.05 4.65 0 5.84-3.94 10.63-8.02 3.53-3.01 7.53-4.29 10.35-2.96 2.34 1.11-5.21 3.38-3.8 3.94 0 0 5.07-1.97 9.01-2.11s4.72 0.38 5.21 1.27c0.7 1.27-3.8 1.27-2.67 2.39 1.13 1.13 5.91-0.7 9.01-0.14s3.1 2.11 2.39 2.67c-0.7 0.56-5.56 1.55-5.63 2.96-0.05 0.98 3.04 1.21 4.58 2.96 1.55 1.76 1.27 4.22 1.13 5.49-0.16 1.26-0.51 3.09-0.51 3.09z" fill="#01ab46"/>
    <path d="m46.26 52.03c-3.02 0.34-8.52-4.43-11.47 2.67-2.39 5.76 5.8 10 10.84 6.12 2.3-1.76 3.59-4.01 5.35-5.77 1.16-1.16 2.67-1.99 3.03-3.1 0.62-1.96-4.59-0.27-7.75 0.08z" fill="#78de8a"/>
    <path d="m31.97 93.49s1.06-5.98 6.48-7.88 15.27-0.28 17.46-0.99c2.18-0.7 5.23-1.87 5.84-7.6 0.49-4.65-0.99-5.07-1.27-11.05-0.33-6.97 4.22-8.67 5.77-8.59 1.27 0.07 2.25 0.92 2.32 1.9 0.1 1.42-0.14 2.25-0.14 2.25s2.5 0.5 3.03 4.5c0.77 5.91-3.66 8.52-4.01 11.68-0.35 3.17 0 8.73-5 11.54s-5.44 1.24-9.08 2.46c-1.43 0.48-3.87 1.9-6.69 1.48s-3.59-1.55-7.25-1.55c-2.83 0.02-7.46 1.85-7.46 1.85z" fill="#78de8a"/>
    <path d="m42.6 58.24c-1.22 1.48-3.64 1.82-5.12 0.87-1.53-0.98-1.35-3.63 0.09-5.35 1.45-1.72 3.81-2.02 5.21-0.84 1.4 1.17 1.25 3.59-0.18 5.32z" fill="#2a2c33"/>
    <path d="m12 51.23c-1.07 1.19-0.05 2.63 0.33 2.96s1.36 0.99 1.17 1.78c-0.19 0.8-1.41 2.39-0.52 3.14s3.19-0.66 3.47-3.33-0.89-3.85-1.5-4.41c-0.6-0.56-2.06-1.13-2.95-0.14z" fill="#44484a"/>
   </g>
   <g transform="matrix(.4217 -.040593 .040593 .4217 -21.447 61.053)">
    <path d="m55 150v2.1167h2.1167v2.1167h2.1167v2.1167h2.1167v2.1167h2.1167v2.1167h12.7v-2.1167h2.1167v-2.1167h2.1167v-2.1167h2.1167v-2.1167h2.1167v-2.1167h-14.817z" stroke-width=".26458"/>
    <g fill="#fff">
     <path d="m67.7 156.35h-2.1167v2.1167h2.1167v-1.0583z"/>
     <path d="m67.7 154.23v2.1167h2.1167v-2.1167h-1.0583z"/>
     <path d="m65.583 154.23h2.1167v-2.1167h-2.1167v1.0583z"/>
     <path d="m63.466 154.23v2.1167h2.1167v-2.1167h-1.0583z"/>
     <path d="m61.35 152.12v2.1167h2.1167v-2.1167h-1.0583z"/>
    </g>
   </g>
  </g>
  <g transform="matrix(.34461 0 -.03622 .34461 6.0584 80.4)" stroke-width=".26458" style="font-variation-settings:'wght' 500" aria-label="AREWELOONGYET?">
   <g fill="#feb30b">
    <path d="m51.542 133.91 3.6576-18.288 3.5673 7e-5 3.6576 18.288h-3.0932l-0.72249-4.222h-3.1835l-0.74507 4.222zm4.222-6.3444h2.4836l-1.2418-7.6764z"/>
    <path d="m64.16 133.91v-18.288h4.3801q1.8514 0 3.1157 0.45155 1.2869 0.42898 1.9417 1.4901 0.67733 1.0612 0.67733 2.89 0 1.1063-0.2032 1.9868-0.2032 0.88054-0.69991 1.5127-0.47413 0.6096-1.3321 0.94826l2.5513 9.0086h-3.3415l-2.2126-8.3764h-1.5353v8.3764zm3.3415-10.476h1.0386q0.97084 0 1.5353-0.27094 0.58702-0.29351 0.83538-0.90311 0.24836-0.63218 0.24836-1.603 0-1.3772-0.51929-2.0546-0.49671-0.69992-1.9191-0.69992h-1.2192z"/>
    <path d="m76.779 133.91v-18.288h7.6765v2.3481h-4.3349v5.2606h3.4092v2.3255h-3.4092v6.0508h4.3801v2.3029z"/>
    <path d="m88.362 133.91-2.5964-18.288h2.7996l1.5127 11.853 1.8965-11.808h2.2804l1.9417 11.808 1.4901-11.853h2.7545l-2.5513 18.288h-2.7093l-2.032-12.26-2.0094 12.26z"/>
    <path d="m102.47 133.91v-18.288h7.6764v2.3481h-4.3349v5.2606h3.4092v2.3255h-3.4092v6.0508h4.3801v2.3029z"/>
   </g>
   <g fill="#d43330">
    <path d="m112.13 133.91v-18.288h3.3415v15.985h4.4252v2.3029z"/>
    <path d="m126.39 134.15q-1.9417 0-3.0932-0.72249t-1.6482-2.0772q-0.49671-1.3547-0.49671-3.206v-6.8411q0-1.8514 0.49671-3.1609 0.49671-1.3321 1.6482-2.032t3.0932-0.69991q1.9868 0 3.1157 0.69991 1.1515 0.69991 1.6482 2.032 0.51929 1.3095 0.51929 3.1609v6.8636q0 1.8288-0.51929 3.1835-0.49671 1.3321-1.6482 2.0772-1.1289 0.72249-3.1157 0.72249zm0-2.461q0.83538 0 1.2192-0.36124 0.4064-0.36125 0.54187-0.99343 0.13546-0.63218 0.13546-1.3772v-8.4215q0-0.76765-0.13546-1.3772-0.13547-0.6096-0.54187-0.94827-0.38382-0.36124-1.2192-0.36124-0.79023 0-1.1966 0.36124-0.4064 0.33867-0.54186 0.94827-0.13547 0.6096-0.13547 1.3772v8.4215q0 0.74506 0.11289 1.3772 0.13547 0.63218 0.54187 0.99343 0.4064 0.36124 1.2192 0.36124z"/>
    <path d="m139.1 134.15q-1.9417 0-3.0932-0.72249-1.1515-0.72249-1.6482-2.0772-0.49671-1.3547-0.49671-3.206v-6.8411q0-1.8514 0.49671-3.1609 0.49672-1.3321 1.6482-2.032 1.1515-0.69991 3.0932-0.69991 1.9868 0 3.1157 0.69991 1.1515 0.69991 1.6482 2.032 0.51929 1.3095 0.51929 3.1609v6.8636q0 1.8288-0.51929 3.1835-0.49671 1.3321-1.6482 2.0772-1.1289 0.72249-3.1157 0.72249zm0-2.461q0.83538 0 1.2192-0.36124 0.4064-0.36125 0.54187-0.99343t0.13547-1.3772v-8.4215q0-0.76765-0.13547-1.3772t-0.54187-0.94827q-0.38382-0.36124-1.2192-0.36124-0.79022 0-1.1966 0.36124-0.4064 0.33867-0.54187 0.94827-0.13546 0.6096-0.13546 1.3772v8.4215q0 0.74506 0.11288 1.3772 0.13547 0.63218 0.54187 0.99343 0.4064 0.36124 1.2192 0.36124z"/>
    <path d="m146.85 133.91v-18.288h2.3255l4.4478 10.431v-10.431h2.7545v18.288h-2.2126l-4.4704-10.928v10.928z"/>
    <path d="m163.73 134.15q-1.8062 0-2.8674-0.76764-1.0612-0.76765-1.5353-2.1675-0.45155-1.4224-0.45155-3.3415v-6.1412q0-1.9643 0.45155-3.3867 0.45156-1.4224 1.5804-2.1675 1.1515-0.76764 3.1609-0.76764 1.874 0 2.9803 0.63217 1.1063 0.63218 1.5804 1.8288 0.49671 1.174 0.49671 2.8674v0.94827h-3.1835v-1.0386q0-0.88054-0.13547-1.5127-0.11289-0.63217-0.49671-0.94826-0.36124-0.33867-1.1966-0.33867-0.88054 0-1.2869 0.42898-0.38382 0.42898-0.49671 1.1289-0.0903 0.69991-0.0903 1.5353v7.6539q0 0.94827 0.15805 1.6482 0.15804 0.69991 0.58702 1.0837 0.42898 0.36124 1.2192 0.36124 0.8128 0 1.2418-0.4064t0.58702-1.1289q0.18062-0.72249 0.18062-1.7159v-1.7159h-1.9643v-2.0997h4.9671v9.2795h-2.1449l-0.24836-1.8062q-0.36124 0.90311-1.1063 1.4901-0.72249 0.56444-1.9868 0.56444z"/>
   </g>
   <g fill="#feb30b">
    <path d="m174.08 133.91v-6.9766l-3.7028-11.311h3.1157l2.2578 7.2475 2.1223-7.2475h3.048l-3.6576 11.311v6.9766z"/>
    <path d="m182.43 133.91v-18.288h7.6764v2.3481h-4.3349v5.2606h3.4092v2.3255h-3.4092v6.0508h4.3801v2.3029z"/>
    <path d="m193.93 133.91v-15.827h-2.9125v-2.461h9.1214v2.461h-2.8674v15.827z"/>
    <path d="m203.7 129.21v-2.8674q1.0612-0.88053 1.9191-1.8514 0.88053-0.99342 1.3772-2.0997 0.51929-1.1063 0.51929-2.3255 0-0.94826-0.42897-1.4676-0.42898-0.54187-1.2418-0.54187-0.72249 0-1.1515 0.4064-0.4064 0.4064-0.4064 1.1063 0 0.31609 0.0677 0.58702 0.0677 0.27094 0.15805 0.58703l-2.7996 0.6096q-0.15805-0.45156-0.24836-0.88054-0.0677-0.45155-0.0677-0.90311 0-1.8965 1.1515-3.0254 1.174-1.1289 3.3415-1.1289 2.2126 0 3.4318 1.1966t1.2192 3.4092q0 1.445-0.51929 2.6642-0.49671 1.2192-1.4224 2.2804-0.92569 1.0612-2.1449 2.032v2.2126zm-0.11289 4.6962v-3.0028h3.0254v3.0028z"/>
   </g>
  </g>
 </g>
</svg>
