<?xml version="1.0" encoding="UTF-8" standalone="no"?>
<!-- Created with Inkscape (http://www.inkscape.org/) -->

<svg
   width="600"
   height="150"
   viewBox="0 0 600 150"
   version="1.1"
   id="svg6216"
   inkscape:version="1.4 (e7c3feb100, 2024-10-09)"
   sodipodi:docname="logo-readme.svg"
   inkscape:export-filename="logo-readme.png"
   inkscape:export-xdpi="192"
   inkscape:export-ydpi="192"
   xmlns:inkscape="http://www.inkscape.org/namespaces/inkscape"
   xmlns:sodipodi="http://sodipodi.sourceforge.net/DTD/sodipodi-0.dtd"
   xmlns="http://www.w3.org/2000/svg"
   xmlns:svg="http://www.w3.org/2000/svg"
   xmlns:rdf="http://www.w3.org/1999/02/22-rdf-syntax-ns#"
   xmlns:cc="http://creativecommons.org/ns#">
  <sodipodi:namedview
     id="namedview6218"
     pagecolor="#ffffff"
     bordercolor="#111111"
     borderopacity="1"
     inkscape:showpageshadow="0"
     inkscape:pageopacity="0"
     inkscape:pagecheckerboard="1"
     inkscape:deskcolor="#d1d1d1"
     inkscape:document-units="px"
     showgrid="false"
     inkscape:zoom="1.829812"
     inkscape:cx="265.87431"
     inkscape:cy="103.2893"
     inkscape:window-width="1920"
     inkscape:window-height="998"
     inkscape:window-x="0"
     inkscape:window-y="0"
     inkscape:window-maximized="1"
     inkscape:current-layer="layer6-3-4" />
  <defs
     id="defs6213">
    <linearGradient
       id="SVGID_1_"
       gradientUnits="userSpaceOnUse"
       x1="131.4162"
       y1="52.367599"
       x2="63.091"
       y2="69.636597">
      <stop
         offset="0.1705"
         style="stop-color:#01AB46"
         id="stop351" />
      <stop
         offset="0.499"
         style="stop-color:#128A3C"
         id="stop353" />
      <stop
         offset="1"
         style="stop-color:#2F502A"
         id="stop355" />
    </linearGradient>
  </defs>
  <g
     inkscape:groupmode="layer"
     id="layer6-3-4"
     inkscape:label="for-repo-readme"
     transform="matrix(3.7795275,0,0,3.7795275,-30.000001,-699.99997)">
    <g
       id="g5786"
       inkscape:label="fg"
       transform="translate(41.47123,39.920088)">
      <g
         id="g37"
         transform="translate(1.0961302,21.695827)">
        <path
           id="path2"
           style="font-weight:300;font-size:5.64444px;line-height:1.25;font-family:Oswald;-inkscape-font-specification:'Oswald Light';font-variation-settings:'wght' 500;fill:#7f7f7f;fill-opacity:1;stroke-width:0.264583"
           d="m 57.282468,158.25575 q -0.197556,0 -0.344311,-0.1016 -0.141111,-0.1016 -0.237067,-0.20884 v 0.25964 h -0.412044 v -4.57199 h 0.412044 v 1.58044 q 0.09596,-0.12418 0.248356,-0.22013 0.1524,-0.1016 0.372533,-0.1016 0.237066,0 0.383822,0.11288 0.146755,0.10725 0.225777,0.29352 0.07902,0.18626 0.107245,0.41768 0.02822,0.23143 0.02822,0.47414 v 0.68862 q 0,0.41769 -0.07338,0.72813 -0.06773,0.3048 -0.237066,0.47978 -0.169334,0.16933 -0.474133,0.16933 z m -0.07338,-0.32738 q 0.191911,0 0.282222,-0.11853 0.09595,-0.11853 0.124178,-0.34995 0.03387,-0.23707 0.03387,-0.57009 v -0.69991 q 0,-0.31609 -0.03387,-0.53058 -0.02822,-0.22013 -0.124178,-0.33302 -0.09031,-0.11289 -0.287866,-0.11289 -0.1524,0 -0.287867,0.0847 -0.129822,0.0847 -0.214489,0.16933 v 2.22391 q 0.09031,0.0959 0.220133,0.16933 0.129823,0.0677 0.287867,0.0677 z m 1.33209,1.08938 v -0.32173 q 0.282222,0 0.423333,-0.0452 0.146755,-0.0395 0.191911,-0.11853 0.0508,-0.0734 0.0508,-0.17498 0,-0.0903 -0.03387,-0.23706 -0.03387,-0.14676 -0.07338,-0.3048 l -0.671689,-2.87302 h 0.412044 l 0.564444,2.77706 0.547511,-2.77706 h 0.417689 l -0.790222,3.4939 q -0.04516,0.20885 -0.163689,0.33303 -0.112889,0.12982 -0.3048,0.18626 -0.186266,0.0621 -0.462844,0.0621 z m 4.165602,-0.77329 q -0.237066,0 -0.366888,-0.0903 -0.124178,-0.0959 -0.174978,-0.254 -0.04516,-0.16369 -0.04516,-0.37253 v -2.31422 h -0.400755 v -0.27093 h 0.400755 v -1.01036 h 0.412045 v 1.01036 h 0.541864 v 0.27093 h -0.541864 v 2.27471 q 0,0.23706 0.0508,0.33866 0.05644,0.096 0.237074,0.096 0.0508,0 0.11289,-0.006 0.0677,-0.0113 0.12417,-0.0226 v 0.31609 q -0.0847,0.0169 -0.17497,0.0226 -0.0903,0.0113 -0.174986,0.0113 z m 0.812803,-0.0395 v -4.57199 h 0.41205 v 1.65382 q 0.16369,-0.17498 0.36124,-0.28223 0.19756,-0.11288 0.43462,-0.11288 0.16369,0 0.27094,0.0847 0.11288,0.079 0.16933,0.23707 0.0621,0.1524 0.0621,0.37253 v 2.61902 h -0.41769 v -2.52871 q 0,-0.254 -0.079,-0.3556 -0.0734,-0.10724 -0.23142,-0.10724 -0.14112,0 -0.29352,0.0903 -0.14675,0.0847 -0.27657,0.22013 v 2.68111 z m 3.13831,0.0508 q -0.30479,0 -0.50235,-0.11853 -0.19191,-0.12418 -0.28787,-0.4064 -0.0903,-0.28222 -0.0903,-0.75071 v -0.82409 q 0,-0.48542 0.096,-0.75635 0.096,-0.27658 0.29351,-0.38947 0.19755,-0.11853 0.49671,-0.11853 0.34431,0 0.52493,0.14675 0.18062,0.14676 0.24836,0.44591 0.0734,0.29351 0.0734,0.75636 v 0.29351 h -1.3208 v 0.57009 q 0,0.31608 0.0452,0.50235 0.0508,0.18062 0.1524,0.25965 0.10725,0.079 0.27093,0.079 0.12418,0 0.22578,-0.0452 0.1016,-0.0508 0.15805,-0.18626 0.0621,-0.14112 0.0621,-0.39512 v -0.22577 h 0.40075 v 0.18062 q 0,0.44591 -0.18627,0.71684 -0.18062,0.26529 -0.6604,0.26529 z m -0.46848,-1.95862 h 0.9144 v -0.27093 q 0,-0.25965 -0.0282,-0.44027 -0.0282,-0.18626 -0.12417,-0.28222 -0.0903,-0.1016 -0.29352,-0.1016 -0.16933,0 -0.27657,0.0734 -0.1016,0.0734 -0.14676,0.26529 -0.0452,0.18626 -0.0452,0.53622 z m 4.08658,1.96427 q -0.37254,0 -0.62089,-0.1524 -0.24271,-0.15805 -0.36689,-0.43463 -0.12418,-0.28222 -0.1524,-0.65475 l 0.37818,-0.11289 q 0.0282,0.28222 0.1016,0.51364 0.0734,0.22578 0.23142,0.36125 0.15804,0.12982 0.43462,0.12982 0.3048,0 0.47413,-0.15804 0.16934,-0.15805 0.16934,-0.50236 0,-0.3048 -0.1524,-0.52493 -0.14676,-0.22013 -0.4064,-0.46285 l -0.80716,-0.77328 q -0.21449,-0.20885 -0.31609,-0.42898 -0.1016,-0.22578 -0.1016,-0.49107 0,-0.47413 0.28223,-0.72813 0.28222,-0.254 0.75071,-0.254 0.24271,0 0.43462,0.0621 0.19755,0.0621 0.33302,0.2032 0.14111,0.13547 0.22013,0.3556 0.079,0.22013 0.10725,0.53622 l -0.36689,0.096 q -0.0226,-0.28787 -0.096,-0.49107 -0.0677,-0.20885 -0.22013,-0.31609 -0.14675,-0.10724 -0.41204,-0.10724 -0.28223,0 -0.46285,0.14675 -0.18062,0.14676 -0.18062,0.4572 0,0.18627 0.0677,0.33867 0.0734,0.1524 0.254,0.32738 l 0.80716,0.76199 q 0.27093,0.254 0.46849,0.56445 0.19755,0.31044 0.19755,0.69991 0,0.34431 -0.13546,0.57573 -0.12983,0.23142 -0.36689,0.34996 -0.23707,0.11289 -0.54751,0.11289 z m 1.54092,-0.0564 v -3.26248 h 0.41205 v 0.33866 q 0.15804,-0.16933 0.3556,-0.27658 0.19755,-0.11288 0.42898,-0.11288 0.16368,0 0.27657,0.0847 0.11289,0.079 0.16934,0.23707 0.0564,0.1524 0.0564,0.37253 v 2.61902 h -0.41204 v -2.52871 q 0,-0.254 -0.079,-0.3556 -0.0734,-0.10724 -0.23142,-0.10724 -0.14111,0 -0.28786,0.0847 -0.14676,0.0847 -0.27658,0.22013 v 2.68675 z m 2.80529,0.0508 q -0.19191,0 -0.33866,-0.0959 -0.14676,-0.1016 -0.23143,-0.26529 -0.0847,-0.16934 -0.0847,-0.36689 0,-0.24836 0.0734,-0.42333 0.0734,-0.17498 0.22578,-0.31045 0.1524,-0.14111 0.4064,-0.27093 0.254,-0.13547 0.6096,-0.29916 v -0.23142 q 0,-0.29915 -0.0339,-0.46849 -0.0339,-0.17497 -0.12417,-0.24835 -0.0847,-0.0734 -0.24836,-0.0734 -0.12418,0 -0.23142,0.0508 -0.1016,0.0508 -0.16369,0.17498 -0.0564,0.11853 -0.0564,0.33302 v 0.11289 l -0.4064,-0.006 q 0.006,-0.49671 0.20884,-0.73377 0.20885,-0.24271 0.67169,-0.24271 0.44027,0 0.61524,0.26528 0.18063,0.25965 0.18063,0.8128 v 1.58609 q 0,0.0847 0.006,0.22013 0.006,0.12983 0.0113,0.24836 0.0113,0.11853 0.0169,0.18062 h -0.36689 q -0.0169,-0.10724 -0.0395,-0.23706 -0.0169,-0.13547 -0.0226,-0.21449 -0.0677,0.19755 -0.24271,0.34995 -0.17497,0.1524 -0.43462,0.1524 z m 0.13547,-0.34995 q 0.12418,0 0.22013,-0.0621 0.1016,-0.0621 0.18062,-0.14676 0.079,-0.0903 0.12418,-0.18062 v -1.016 q -0.23706,0.12418 -0.41204,0.22578 -0.16934,0.1016 -0.27658,0.19755 -0.10724,0.096 -0.16369,0.22014 -0.0508,0.11853 -0.0508,0.28222 0,0.25964 0.11289,0.37253 0.11289,0.10725 0.26529,0.10725 z m 1.54658,0.29915 v -4.57199 h 0.41204 v 2.90124 l 1.08938,-1.59173 h 0.43462 l -0.82409,1.25871 0.79022,2.00377 h -0.41769 l -0.68862,-1.77235 -0.38382,0.53622 v 1.23613 z m 3.05928,0.0508 q -0.3048,0 -0.50236,-0.11853 -0.19191,-0.12418 -0.28786,-0.4064 -0.0903,-0.28222 -0.0903,-0.75071 v -0.82409 q 0,-0.48542 0.096,-0.75635 0.096,-0.27658 0.29351,-0.38947 0.19756,-0.11853 0.49671,-0.11853 0.34431,0 0.52493,0.14675 0.18063,0.14676 0.24836,0.44591 0.0734,0.29351 0.0734,0.75636 v 0.29351 h -1.3208 v 0.57009 q 0,0.31608 0.0452,0.50235 0.0508,0.18062 0.1524,0.25965 0.10725,0.079 0.27094,0.079 0.12417,0 0.22577,-0.0452 0.1016,-0.0508 0.15805,-0.18626 0.0621,-0.14112 0.0621,-0.39512 V 157.093 h 0.40075 v 0.18062 q 0,0.44591 -0.18626,0.71684 -0.18063,0.26529 -0.6604,0.26529 z m -0.46849,-1.95862 h 0.9144 v -0.27093 q 0,-0.25965 -0.0282,-0.44027 -0.0282,-0.18626 -0.12418,-0.28222 -0.0903,-0.1016 -0.29351,-0.1016 -0.16934,0 -0.27658,0.0734 -0.1016,0.0734 -0.14676,0.26529 -0.0452,0.18626 -0.0452,0.53622 z m 2.60209,1.95862 q -0.41769,0 -0.60396,-0.31609 -0.18062,-0.31609 -0.18062,-1.04986 v -0.60402 q 0,-0.42898 0.0621,-0.73942 0.0621,-0.31044 0.22578,-0.47978 0.16933,-0.17497 0.47978,-0.17497 0.19191,0 0.33302,0.0903 0.14675,0.0847 0.24271,0.19191 v -1.54093 h 0.41204 v 4.57199 h -0.41204 v -0.23142 q -0.096,0.10724 -0.23707,0.19756 -0.13546,0.0847 -0.32173,0.0847 z m 0.0847,-0.32738 q 0.13546,0 0.25399,-0.0621 0.12418,-0.0621 0.22014,-0.1524 v -2.26907 q -0.0847,-0.079 -0.20885,-0.1524 -0.12417,-0.079 -0.27657,-0.079 -0.27094,0 -0.36125,0.24271 -0.0847,0.23707 -0.0847,0.69427 v 0.77328 q 0,0.32738 0.0339,0.55316 0.0395,0.22578 0.13547,0.33867 0.1016,0.11288 0.28787,0.11288 z m 2.0207,0.32738 q -0.19191,0 -0.33866,-0.0959 -0.14676,-0.1016 -0.23142,-0.26529 -0.0847,-0.16934 -0.0847,-0.36689 0,-0.24836 0.0734,-0.42333 0.0734,-0.17498 0.22578,-0.31045 0.15239,-0.14111 0.40639,-0.27093 0.254,-0.13547 0.6096,-0.29916 v -0.23142 q 0,-0.29915 -0.0339,-0.46849 -0.0339,-0.17497 -0.12418,-0.24835 -0.0847,-0.0734 -0.24836,-0.0734 -0.12417,0 -0.23142,0.0508 -0.1016,0.0508 -0.16369,0.17498 -0.0564,0.11853 -0.0564,0.33302 v 0.11289 l -0.4064,-0.006 q 0.006,-0.49671 0.20884,-0.73377 0.20885,-0.24271 0.67169,-0.24271 0.44027,0 0.61525,0.26528 0.18062,0.25965 0.18062,0.8128 v 1.58609 q 0,0.0847 0.006,0.22013 0.006,0.12983 0.0113,0.24836 0.0113,0.11853 0.0169,0.18062 h -0.36689 q -0.0169,-0.10724 -0.0395,-0.23706 -0.0169,-0.13547 -0.0226,-0.21449 -0.0677,0.19755 -0.24271,0.34995 -0.17498,0.1524 -0.43463,0.1524 z m 0.13547,-0.34995 q 0.12418,0 0.22013,-0.0621 0.1016,-0.0621 0.18063,-0.14676 0.079,-0.0903 0.12417,-0.18062 v -1.016 q -0.23706,0.12418 -0.41204,0.22578 -0.16933,0.1016 -0.27658,0.19755 -0.10724,0.096 -0.16369,0.22014 -0.0508,0.11853 -0.0508,0.28222 0,0.25964 0.11289,0.37253 0.11289,0.10725 0.26529,0.10725 z m 2.02071,0.34995 q -0.16369,0 -0.27658,-0.0847 -0.11288,-0.0847 -0.17497,-0.23707 -0.0564,-0.1524 -0.0564,-0.37253 v -2.61902 h 0.41769 v 2.5287 q 0,0.254 0.0734,0.3556 0.079,0.1016 0.23707,0.1016 0.14675,0 0.29351,-0.0903 0.1524,-0.0903 0.28222,-0.23142 v -2.66417 h 0.41204 v 3.26248 h -0.41204 v -0.36124 q -0.15805,0.18062 -0.36125,0.29915 -0.2032,0.11289 -0.43462,0.11289 z m 2.68111,1.02165 q -0.32173,0 -0.56444,-0.0621 -0.23707,-0.0621 -0.36689,-0.19756 -0.12418,-0.12982 -0.12418,-0.33302 0,-0.16933 0.0903,-0.31609 0.0903,-0.14111 0.22578,-0.24835 0.13547,-0.10725 0.27658,-0.16934 l 0.22578,0.0508 q -0.0847,0.0565 -0.19756,0.14111 -0.10724,0.0847 -0.18626,0.19191 -0.0734,0.10725 -0.0734,0.24271 0,0.19192 0.17498,0.27658 0.17497,0.0903 0.53622,0.0903 0.33302,0 0.53057,-0.1016 0.2032,-0.0959 0.2032,-0.31609 0,-0.11288 -0.0508,-0.19755 -0.0451,-0.079 -0.17497,-0.14111 -0.12983,-0.0621 -0.38947,-0.1016 l -0.56444,-0.0903 q -0.23707,-0.0452 -0.34996,-0.14111 -0.10724,-0.096 -0.10724,-0.24271 0,-0.18063 0.11853,-0.32174 0.12418,-0.14675 0.32173,-0.31609 l 0.15805,0.11289 q -0.0847,0.0903 -0.16934,0.2032 -0.079,0.10725 -0.079,0.2032 0,0.0847 0.0621,0.12982 0.0677,0.0395 0.20885,0.0621 l 0.53622,0.079 q 0.39511,0.0564 0.60395,0.23706 0.21449,0.18062 0.21449,0.51365 0,0.25964 -0.14111,0.42897 -0.13547,0.17498 -0.38382,0.254 -0.24271,0.079 -0.56445,0.079 z m 0.0282,-2.09974 q -0.32738,0 -0.53623,-0.1524 -0.2032,-0.1524 -0.29915,-0.41204 -0.096,-0.25964 -0.096,-0.58138 0,-0.31609 0.096,-0.57009 0.1016,-0.25964 0.3048,-0.41204 0.2032,-0.15804 0.51929,-0.15804 0.31044,0 0.51364,0.16368 0.2032,0.15805 0.29916,0.42334 0.1016,0.25964 0.1016,0.5588 0,0.32737 -0.0903,0.58702 -0.0903,0.25964 -0.28787,0.4064 -0.19756,0.14675 -0.52493,0.14675 z m 0,-0.29915 q 0.17497,0 0.27657,-0.0734 0.10725,-0.079 0.15805,-0.2032 0.0564,-0.12418 0.0734,-0.27093 0.0169,-0.1524 0.0169,-0.29916 0,-0.14675 -0.0226,-0.29351 -0.0169,-0.14675 -0.0734,-0.27093 -0.0564,-0.12418 -0.16368,-0.19756 -0.1016,-0.079 -0.27094,-0.079 -0.16933,0 -0.27658,0.079 -0.1016,0.079 -0.16368,0.20885 -0.0621,0.12417 -0.0847,0.27093 -0.0169,0.14111 -0.0169,0.28222 0,0.13547 0.0169,0.28787 0.0226,0.14675 0.079,0.27658 0.0564,0.12417 0.16369,0.2032 0.10724,0.079 0.28787,0.079 z m 0.77893,-1.38289 -0.096,-0.17498 q 0.0564,-0.11289 0.19756,-0.23142 0.14675,-0.11853 0.33867,-0.19191 l 0.11288,0.28787 q -0.096,0.0226 -0.21448,0.0734 -0.11289,0.0508 -0.20885,0.11289 -0.096,0.0621 -0.12982,0.12418 z m 0.8128,2.70933 v -4.57199 h 0.41204 v 1.65382 q 0.16369,-0.17498 0.36125,-0.28223 0.19755,-0.11288 0.43462,-0.11288 0.16369,0 0.27093,0.0847 0.11289,0.079 0.16934,0.23707 0.0621,0.1524 0.0621,0.37253 v 2.61902 h -0.4177 v -2.52871 q 0,-0.254 -0.079,-0.3556 -0.0734,-0.10724 -0.23142,-0.10724 -0.14111,0 -0.29351,0.0903 -0.14675,0.0847 -0.27658,0.22013 v 2.68111 z m 3.09316,0.0395 q -0.23707,0 -0.36689,-0.0903 -0.12418,-0.0959 -0.17498,-0.254 -0.0452,-0.16369 -0.0452,-0.37253 v -2.31422 h -0.40075 v -0.27093 h 0.40075 v -1.01036 h 0.41205 v 1.01036 h 0.54186 v 0.27093 h -0.54186 v 2.27471 q 0,0.23706 0.0508,0.33866 0.0564,0.096 0.23706,0.096 0.0508,0 0.11289,-0.006 0.0677,-0.0113 0.12418,-0.0226 v 0.31609 q -0.0847,0.0169 -0.17498,0.0226 -0.0903,0.0113 -0.17497,0.0113 z m 1.6256,0.0113 q -0.3048,0 -0.50236,-0.11853 -0.19191,-0.12418 -0.28786,-0.4064 -0.0903,-0.28222 -0.0903,-0.75071 v -0.82409 q 0,-0.48542 0.0959,-0.75635 0.096,-0.27658 0.29351,-0.38947 0.19756,-0.11853 0.49671,-0.11853 0.34431,0 0.52494,0.14675 0.18062,0.14676 0.24835,0.44591 0.0734,0.29351 0.0734,0.75636 v 0.29351 h -1.3208 v 0.57009 q 0,0.31608 0.0452,0.50235 0.0508,0.18062 0.1524,0.25965 0.10724,0.079 0.27093,0.079 0.12418,0 0.22578,-0.0452 0.1016,-0.0508 0.15804,-0.18626 0.0621,-0.14112 0.0621,-0.39512 V 157.093 h 0.40075 v 0.18062 q 0,0.44591 -0.18626,0.71684 -0.18062,0.26529 -0.6604,0.26529 z m -0.46849,-1.95862 h 0.9144 v -0.27093 q 0,-0.25965 -0.0282,-0.44027 -0.0282,-0.18626 -0.12418,-0.28222 -0.0903,-0.1016 -0.29351,-0.1016 -0.16933,0 -0.27658,0.0734 -0.1016,0.0734 -0.14675,0.26529 -0.0452,0.18626 -0.0452,0.53622 z m 1.90782,1.90782 v -3.26248 h 0.41769 v 0.44591 q 0.15805,-0.25965 0.36125,-0.36689 0.2032,-0.11289 0.38946,-0.11289 0.0169,0 0.0339,0 0.0169,0 0.0395,0.006 v 0.44027 q -0.0395,-0.0169 -0.0959,-0.0226 -0.0565,-0.0113 -0.10725,-0.0113 -0.19191,0 -0.34995,0.0903 -0.1524,0.0903 -0.27094,0.28787 v 2.50613 z m 3.951107,0.0564 q -0.462837,0 -0.716837,-0.19191 -0.24835,-0.19192 -0.34431,-0.51365 -0.096,-0.32738 -0.096,-0.72249 v -1.81752 q 0,-0.42333 0.096,-0.74506 0.1016,-0.32174 0.3556,-0.50236 0.254,-0.18062 0.705547,-0.18062 0.41205,0 0.64347,0.15804 0.23707,0.15805 0.33867,0.45156 0.1016,0.28787 0.1016,0.68862 v 0.27658 h -0.4064 v -0.26529 q 0,-0.29916 -0.0508,-0.51364 -0.0452,-0.21449 -0.19191,-0.33303 -0.14676,-0.11853 -0.42898,-0.11853 -0.310447,0 -0.468487,0.12982 -0.1524,0.12418 -0.20884,0.3556 -0.0508,0.23142 -0.0508,0.53622 v 1.94734 q 0,0.33866 0.0621,0.56444 0.0677,0.22578 0.22577,0.33867 0.15805,0.11289 0.440267,0.11289 0.28787,0 0.42898,-0.12418 0.14675,-0.12418 0.19191,-0.34431 0.0508,-0.22578 0.0508,-0.52494 v -0.29915 h 0.4064 v 0.27093 q 0,0.40076 -0.096,0.7112 -0.0903,0.3048 -0.32738,0.47978 -0.23142,0.17498 -0.6604,0.17498 z m 1.69899,-0.0564 v -3.26248 h 0.41769 v 0.44591 q 0.15804,-0.25965 0.36124,-0.36689 0.2032,-0.11289 0.38947,-0.11289 0.0169,0 0.0339,0 0.0169,0 0.0395,0.006 v 0.44027 q -0.0395,-0.0169 -0.0959,-0.0226 -0.0565,-0.0113 -0.10725,-0.0113 -0.19191,0 -0.34995,0.0903 -0.1524,0.0903 -0.27093,0.28787 v 2.50613 z m 2.44969,0.0508 q -0.3048,0 -0.50236,-0.11853 -0.19191,-0.12418 -0.28786,-0.4064 -0.0903,-0.28222 -0.0903,-0.75071 v -0.82409 q 0,-0.48542 0.0959,-0.75635 0.096,-0.27658 0.29351,-0.38947 0.19756,-0.11853 0.49671,-0.11853 0.34431,0 0.52494,0.14675 0.18062,0.14676 0.24835,0.44591 0.0734,0.29351 0.0734,0.75636 v 0.29351 h -1.3208 v 0.57009 q 0,0.31608 0.0452,0.50235 0.0508,0.18062 0.1524,0.25965 0.10724,0.079 0.27093,0.079 0.12418,0 0.22578,-0.0452 0.1016,-0.0508 0.15804,-0.18626 0.0621,-0.14112 0.0621,-0.39512 V 157.093 h 0.40075 v 0.18062 q 0,0.44591 -0.18626,0.71684 -0.18062,0.26529 -0.6604,0.26529 z m -0.46849,-1.95862 h 0.9144 v -0.27093 q 0,-0.25965 -0.0282,-0.44027 -0.0282,-0.18626 -0.12418,-0.28222 -0.0903,-0.1016 -0.29351,-0.1016 -0.16933,0 -0.27658,0.0734 -0.1016,0.0734 -0.14675,0.26529 -0.0452,0.18626 -0.0452,0.53622 z m 2.25777,1.90782 -0.53057,-3.26248 h 0.3556 l 0.40639,2.72626 0.51365,-2.72626 h 0.3556 l 0.51929,2.71497 0.38946,-2.71497 h 0.3556 l -0.53057,3.26248 h -0.38383 l -0.52493,-2.65289 -0.508,2.65289 z" />
        <path
           id="path3"
           style="font-weight:500;font-size:5.64444px;line-height:1.25;font-family:Oswald;-inkscape-font-specification:'Oswald Medium';font-variation-settings:'wght' 500;fill:#bed04a;fill-opacity:1;stroke-width:0.264583"
           d="m 32.034766,158.30091 q -0.412044,0 -0.672011,-0.15804 -0.259374,-0.16369 -0.367855,-0.47414 -0.108482,-0.31044 -0.07796,-0.762 l 0.731676,-0.14111 q -0.01659,0.26529 0.01285,0.46849 0.03508,0.2032 0.130467,0.31609 0.101617,0.10724 0.28224,0.10724 0.203199,0 0.300324,-0.11853 0.09772,-0.12418 0.117298,-0.31044 0.03144,-0.29916 -0.08385,-0.49107 -0.115297,-0.19191 -0.320903,-0.38382 l -0.52234,-0.508 q -0.22076,-0.20885 -0.340819,-0.46285 -0.113821,-0.25964 -0.07407,-0.63782 0.05695,-0.54186 0.403889,-0.83537 0.346939,-0.29352 0.89445,-0.29352 0.321733,0 0.525542,0.1016 0.204399,0.096 0.31019,0.27094 0.111431,0.17498 0.149791,0.40075 0.03895,0.22014 0.02978,0.46849 l -0.724252,0.12418 q 0.01125,-0.21449 -0.01046,-0.38382 -0.01607,-0.16934 -0.101939,-0.26529 -0.08022,-0.096 -0.260843,-0.096 -0.186266,0 -0.300918,0.12418 -0.108418,0.11853 -0.127403,0.29916 -0.02432,0.23142 0.05562,0.38382 0.08053,0.14675 0.244541,0.3048 l 0.51729,0.50235 q 0.257305,0.23707 0.421045,0.5588 0.169978,0.31609 0.122517,0.76765 -0.03441,0.32737 -0.20786,0.58137 -0.167807,0.254 -0.442877,0.40076 -0.268831,0.14111 -0.613142,0.14111 z m 1.643412,-0.0621 0.480537,-4.572 h 0.581377 l 0.83787,2.60774 0.274085,-2.60774 h 0.688622 l -0.480537,4.572 h -0.553155 l -0.830464,-2.73191 -0.287136,2.73191 z m 2.844798,0 1.394936,-4.572 h 0.891821 l 0.433863,4.572 h -0.773289 l -0.06968,-1.05551 h -0.795866 l -0.297205,1.05551 z m 1.222215,-1.58609 h 0.620888 l -0.108737,-1.91911 z m 1.955601,1.58609 0.480537,-4.572 h 0.83538 l -0.2112,2.00943 1.11431,-2.00943 h 0.79586 l -1.089649,2.04329 0.699422,2.52871 h -0.82973 l -0.548729,-2.0828 -0.228692,0.34996 -0.182129,1.73284 z m 3.00284,0 0.480537,-4.572 h 1.91911 l -0.0617,0.58703 h -1.08373 l -0.138227,1.31515 h 0.85231 l -0.06111,0.58138 h -0.85231 l -0.158992,1.51271 h 1.09502 l -0.06051,0.57573 z" />
        <path
           id="path4"
           style="font-weight:500;font-size:5.64444px;line-height:1.25;font-family:Oswald;-inkscape-font-specification:'Oswald Medium';font-variation-settings:'wght' 500;fill:#feb30b;fill-opacity:1;stroke-width:0.264583"
           d="m 15.694999,158.23881 1.394937,-4.572 h 0.891821 l 0.433862,4.572 h -0.773288 l -0.06968,-1.05551 h -0.795866 l -0.297206,1.05551 z m 1.222216,-1.58609 h 0.620888 l -0.108737,-1.91911 z m 1.955601,1.58609 0.480537,-4.572 h 1.095021 q 0.462844,0 0.767068,0.11289 0.31046,0.10725 0.446266,0.37254 0.14145,0.26529 0.0934,0.72248 -0.02907,0.27658 -0.103007,0.49672 -0.07394,0.22013 -0.214725,0.37817 -0.134551,0.1524 -0.357939,0.23707 l 0.401113,2.25213 h -0.83538 l -0.333057,-2.09409 h -0.383822 l -0.220098,2.09409 z m 1.110647,-2.61902 h 0.259644 q 0.242711,0 0.390938,-0.0677 0.15447,-0.0734 0.232574,-0.22578 0.0787,-0.15804 0.104212,-0.40076 0.03619,-0.34431 -0.07584,-0.51364 -0.105787,-0.17498 -0.461387,-0.17498 h -0.304799 z m 2.055888,2.61902 0.480537,-4.572 h 1.91911 l -0.0617,0.58703 h -1.083733 l -0.138227,1.31515 h 0.852311 l -0.06111,0.58138 h -0.852311 l -0.158992,1.51271 h 1.095022 l -0.06051,0.57573 z m 2.895595,0 -0.168573,-4.572 h 0.69991 l 0.06672,2.96334 0.784406,-2.95205 h 0.570088 l 0.175149,2.95205 0.683993,-2.96334 h 0.688622 l -1.118359,4.572 h -0.677333 l -0.185862,-3.06493 -0.824493,3.06493 z m 3.539064,0 0.480537,-4.572 h 1.919109 l -0.0617,0.58703 h -1.083732 l -0.138227,1.31515 h 0.85231 l -0.06111,0.58138 h -0.85231 l -0.158992,1.51271 h 1.095021 l -0.06051,0.57573 z m 17.283262,0 0.183316,-1.74413 -0.628469,-2.82787 h 0.77893 l 0.374015,1.81187 0.721005,-1.81187 h 0.762 l -1.211621,2.82787 -0.183316,1.74413 z m 2.11102,0 0.480537,-4.572 h 1.91911 l -0.0617,0.58703 h -1.08374 l -0.138227,1.31515 h 0.85231 l -0.06111,0.58138 h -0.85231 l -0.158992,1.51271 h 1.09503 l -0.06051,0.57573 z m 2.87301,0 0.415871,-3.95675 h -0.72813 l 0.06467,-0.61525 h 2.28036 l -0.06467,0.61525 h -0.71685 l -0.415871,3.95675 z m 2.556157,-1.17404 0.07534,-0.71685 q 0.288426,-0.22013 0.528426,-0.46284 0.240594,-0.24836 0.393833,-0.52493 0.158899,-0.27658 0.190935,-0.58138 0.02492,-0.23707 -0.06869,-0.36689 -0.08736,-0.13547 -0.296202,-0.13547 -0.17498,0 -0.292898,0.1016 -0.112279,0.1016 -0.13067,0.27658 -0.0083,0.079 0.0015,0.14676 0.0098,0.0677 0.02408,0.14675 l -0.721568,0.1524 q -0.02204,-0.11289 -0.03326,-0.22013 -0.01073,-0.11289 0.0011,-0.22578 0.04983,-0.47413 0.373006,-0.75635 0.323183,-0.28223 0.859403,-0.28223 0.5588,0 0.826507,0.29916 0.273357,0.29916 0.215219,0.85231 -0.03797,0.36124 -0.199824,0.66604 -0.156216,0.3048 -0.415519,0.57009 -0.253663,0.26529 -0.583973,0.508 l -0.05814,0.55316 z m -0.151597,1.17404 0.0789,-0.75071 h 0.75071 l -0.0789,0.75071 z" />
        <g
           id="g6"
           inkscape:label="text paths"
           style="display:inline"
           transform="translate(-37.221667,-57.647163)">
          <path
             id="path5"
             style="font-style:oblique;font-size:25.4px;line-height:1.25;font-family:'Smiley Sans';-inkscape-font-specification:'Smiley Sans Oblique';letter-spacing:-1.32292px;fill:#bed04a;fill-opacity:1;stroke-width:0.264583"
             d="m 71.989928,208.95733 c 1.905,-0.381 3.7338,-0.8382 5.5118,-1.4732 0.0508,0.635 0.0762,1.3208 0.1016,2.0066 l 1.778,-0.5842 c -0.1524,-2.286 -0.4064,-4.3942 -0.8382,-6.7564 l -1.6256,0.3556 c 0.1524,0.9906 0.2794,1.9558 0.381,2.9718 -0.4064,0.1524 -0.8382,0.3048 -1.27,0.4318 l 0.5334,-5.0292 h 2.4638 l 1.0414,-9.7282 c 0.127,-0.9906 -0.2286,-1.7018 -1.397,-1.7018 h -0.7366 l 0.4318,-4.2418 h -2.0574 l -0.4572,4.2418 h -2.286 l -1.1938,11.43 h 2.3114 l -0.5842,5.588 c -0.8382,0.2032 -1.7018,0.4064 -2.5654,0.5588 z m 10.668,-15.4178 0.3048,-2.8448 h 4.775199 l -0.3048,2.8448 h 2.1336 l 0.3302,-2.9972 c 0.1016,-1.2446 -0.5334,-2.0574 -1.8796,-2.0574 h -1.4732 l 0.3302,-2.9464 h -2.184399 l -0.3048,2.9464 h -3.3274 l -0.5334,5.0546 z m -8.382,5.2832 0.762,-7.3406 h 0.8382 l -0.762,7.3406 z m 2.413,0 0.762,-7.3406 h 0.889 l -0.7874,7.3406 z m 10.261599,4.445 c -0.3048,3.1242 -1.346199,4.4704 -2.870199,4.4704 -1.143,0 -1.9558,-0.889 -1.6002,-4.0386 l 0.1778,-1.6002 c 2.7178,-1.4224 4.800599,-3.2004 6.349999,-5.3086 l -1.3462,-1.397 c -1.2192,1.6764 -2.743199,3.0988 -4.749799,4.318 l 0.5588,-5.3594 h -2.0828 l -0.9906,9.4996 c -0.508,4.6736 1.143,5.9944 3.429,5.9944 3.098799,0 4.724399,-2.413 5.130799,-6.2992 z" />
          <path
             id="path6"
             style="font-style:oblique;font-size:25.4px;line-height:1.25;font-family:'Smiley Sans';-inkscape-font-specification:'Smiley Sans Oblique';letter-spacing:-1.32292px;fill:#feb30b;fill-opacity:1;stroke-width:0.264583"
             d="m 70.544267,190.84713 c 0.127,-1.2446 -0.508,-2.2352 -2.0066,-2.2352 h -2.3368 c 0.4826,-0.9906 0.8382,-1.9558 1.143,-2.921 l -2.2352,-0.4826 c -0.3556,1.1684 -0.8382,2.286 -1.397,3.4036 h -2.2098 l -2.2098,21.0566 h 9.2456 z m -15.5194,16.637 0.1778,-1.651 h 3.2258 l 1.7526,-16.3068 c 0.127,-1.1684 -0.381,-1.9812 -1.8288,-1.9812 h -3.3528 l -2.0828,19.939 z m 0.381,-3.7338 1.4986,-14.097 h 1.1176 l -1.4986,14.097 z m 7.6962,-8.8138 0.4064,-4.0386 h 4.7752 l -0.4318,4.0386 z m -0.6604,6.1976 0.4318,-4.0132 h 4.7498 l -0.4318,4.0132 z m -0.6604,6.2484 0.4318,-4.064 h 4.7498 l -0.4318,4.064 z m 40.153123,-2.286 0.7366,-9.4742 5.0038,-6.0198 c 0.889,-1.0922 0.2794,-2.7686 -1.3716,-2.7686 H 94.390588 l -0.2794,2.3622 h 10.795002 l -4.572,5.6134 -0.787402,10.033 c -0.1524,1.8796 -0.762,2.4638 -1.6002,2.4638 -0.7874,0 -1.3208,-0.5842 -1.6764,-2.1336 l -2.3622,0.635 c 0.508,2.6416 1.8542,4.0132 3.8608,4.0132 2.667002,0 3.937002,-1.8288 4.165602,-4.7244 z m 19.35266,-15.5448 h -2.0066 l -1.7018,8.6614 h 7.2898 l -0.7112,6.7056 c -0.1778,1.651 -0.8128,2.5654 -1.9304,2.5654 -0.9398,0 -1.5494,-0.6096 -1.905,-2.2352 l -2.2098,0.5334 c 0.3048,2.3622 1.905,4.064 3.937,4.0386 2.8702,-0.0254 3.937,-2.0574 4.2418,-4.7498 l 0.762,-6.9342 c 0.127,-1.1684 -0.2794,-2.0574 -1.7526,-2.0574 h -0.0254 l 1.397,-7.6708 c 0.2286,-1.2446 -0.3556,-2.0828 -1.524,-2.0828 h -6.4516 l -0.2286,2.1082 h 5.9944 l -1.3716,7.6454 h -3.0734 z m -4.0386,-0.6858 c 0.127,-1.143 -0.3556,-1.9558 -1.7272,-1.9558 h -3.4798 l -2.159,20.574 h 1.9812 l 0.1778,-1.651 h 3.3782 z m -4.9784,14.7828 1.524,-14.5542 h 1.4478 l -1.5748,14.5542 z m 11.4554,-3.0988 h -6.7564 l -0.2286,2.2098 h 6.731 z m 9.57366,2.3876 c 0.4318,-4.6228 4.5466,-5.1562 5.6134,-9.4996 0.6858,-2.8448 -0.3302,-5.6134 -3.7592,-5.6896 -2.8702,-0.0762 -4.318,1.8796 -4.9784,4.572 l 2.3622,0.5588 c 0.508,-1.905 1.27,-2.6924 2.2352,-2.6924 1.524,0 1.8542,1.4478 1.397,3.2004 -0.9906,3.7084 -4.572,3.3782 -4.9022,9.5504 z m -1.5494,5.842 c 0.9398,0 1.7018,-0.7112 1.8796,-1.9304 0.1778,-1.1938 -0.4318,-1.905 -1.397,-1.905 -0.9652,0 -1.7526,0.7112 -1.9304,1.905 -0.1778,1.2192 0.4572,1.9304 1.4478,1.9304 z" />
        </g>
        <g
           id="g36"
           inkscape:label="lesserloong"
           transform="matrix(1.2922955,0,0,1.2922955,-224.13356,-49.553308)">
          <g
             id="g22"
             transform="matrix(0.39464345,0,0,0.39464345,118.99301,88.834095)"
             inkscape:label="snake">
            <path
               style="fill:#96a820;stroke-width:0.5"
               d="m 123.21016,161.77388 c 0,0 4.495,-3.41 11.215,-3.285 9.95,0.19 12.06,4.925 12.06,4.925 l 1.595,7.51 c 0,0 3.005,0.89 3.94,0.985 0.94,0.095 2.77,0.585 4.975,-0.96 2.205,-1.55 1.64,-3.26 2.72,-3.215 1.41,0.06 0.42,4.785 -0.8,6.29 -1.22,1.5 -6.665,4.365 -8.965,4.975 -2.3,0.61 -3.005,1.57 -5.395,1.62 -2.395,0.045 -8.4,-1.57 -8.4,-1.57 l -12.95,-6.1 v -11.175 z"
               id="path7" />
            <path
               style="fill:#70853b;stroke-width:0.5"
               d="m 127.95016,171.62888 c 0,0 1.97,-3.52 5.49,-3.24 3.52,0.28 4.785,2.77 4.785,2.77 l -7.79,2.535 z"
               id="path8" />
            <path
               style="fill:#70853b;stroke-width:0.5"
               d="m 146.01516,176.18388 c 2.485,0.8 3.425,0.705 3.425,0.705 0,0 1.455,-1.55 2.065,-2.865 0.61,-1.315 0.68,-2.065 0.68,-2.065 0,0 -0.96,-0.235 -1.855,-0.515 -0.89,-0.28 -2.675,-1.315 -2.675,-1.315 l -2.065,5.68 z"
               id="path9" />
            <path
               style="fill:#bed04a;stroke-width:0.5"
               d="m 124.19516,126.36888 c 7.32,0.35 13.64,6.875 11.475,15.415 -1.62,6.38 -7.255,14.82 -8.66,16.985 -2.58,3.99 -5.35,11.73 2.415,12.555 11.105,1.175 2.905,-4.915 8.335,-8.67 2.85,-1.97 6.095,-1.35 8.185,0.15 2.725,1.96 10.31,23.03 -17.455,21.565 -5.77,-0.305 -10.355,-3.485 -12.88,-5.915 -7.475,-7.18 -1.74,-19.15 -1.265,-20.2 0.63,-1.405 6.54,-9.08 6.12,-11.54 -0.42,-2.465 -2.465,-1.83 -5.28,-2.815 -2.815,-0.985 -5.94,-4.1 -5.07,-8.375 0.81,-3.98 3.88,-9.645 14.08,-9.155 z"
               id="path10" />
            <path
               style="fill:#e4dda2;stroke-width:0.5"
               d="m 144.96016,180.74388 c 0,0 1.36,-1.23 1.83,-1.605 0.47,-0.375 2.65,-2.25 2.65,-2.25 0,0 3.465,-0.125 5.865,-1.125 2.98,-1.245 4.715,-4.365 4.95,-5.465 0.125,-0.595 -0.305,5.35 -4.575,8.235 -4.125,2.785 -10.72,2.21 -10.72,2.21 z"
               id="path11" />
            <path
               style="fill:#e4dda2;stroke-width:0.5"
               d="m 110.15016,166.94888 c -0.165,6.265 4.955,12.865 9.395,14.64 2.465,0.985 -7.885,-3.835 -7.04,-14.115 0.67,-8.175 8.905,-15.135 9.08,-19.78 0.105,-2.815 -3.38,-3.06 -3.38,-3.06 0,0 1.08,0.81 1.125,1.865 0.07,1.69 -4.295,7.885 -5.21,9.15 -0.905,1.27 -3.825,5.95 -3.97,11.3 z"
               id="path12" />
            <path
               style="fill:#ee6d33;stroke-width:0.5"
               d="m 111.38516,138.54888 2.16,2.345 c 0.105,-0.145 -2.36,2.355 -4.645,4.035 -1.53,1.125 -6.24,3.535 -6.49,3.295 -0.315,-0.305 1.14,-1.265 1.935,-1.97 0.605,-0.535 2.11,-1.89 2.11,-1.89 0,0 -1.855,0.2 -2.745,0.2 -0.89,0 -3.165,0.07 -2.955,-0.35 0.165,-0.33 3.44,-0.85 4.67,-1.35 3.705,-1.5 5.96,-4.315 5.96,-4.315 z"
               id="path13" />
            <path
               style="fill:#323234;stroke-width:0.5"
               d="m 120.32516,131.11888 c -1.285,0.895 -2.535,0.67 -2.94,-0.08 -0.3,-0.56 -0.385,-1.62 0.8,-2.515 1.045,-0.79 2.385,-0.55 2.875,0.13 0.41,0.575 0.24,1.79 -0.735,2.465 z"
               id="path14" />
            <path
               style="fill:#323234;stroke-width:0.5"
               d="m 126.34016,136.94888 c -1.535,0.9 -2.78,0.435 -3.31,-0.38 -0.43,-0.665 -0.33,-2.265 0.915,-2.985 1.29,-0.75 2.72,-0.48 3.27,0.415 0.46,0.75 0.295,2.265 -0.875,2.95 z"
               id="path15" />
            <path
               style="fill:#e4dda2;stroke-width:0.5"
               d="m 132.22016,145.25888 c -0.915,2.125 0.915,3.11 0.915,3.11 0,0 0.715,-1.525 1.02,-2.215 0.375,-0.855 0.74,-1.92 0.74,-1.92 0,0 -1.945,-0.675 -2.675,1.025 z"
               id="path16" />
            <path
               style="fill:#e4dda2;stroke-width:0.5"
               d="m 131.30516,151.74388 c 0,0 -1.265,-0.14 -2.395,-0.53 -1.025,-0.355 -2.75,-1.8 -3.8,0.07 -0.97,1.725 0.655,2.675 1.935,3.205 1.195,0.495 2.27,0.67 2.27,0.67 0,0 0.82,-1.375 1.055,-1.76 0.235,-0.385 0.935,-1.655 0.935,-1.655 z"
               id="path17" />
            <path
               style="fill:#e4dda2;stroke-width:0.5"
               d="m 127.01016,158.77388 c 0,0 -1.69,-0.095 -2.78,-0.375 -0.955,-0.245 -2.7,-1.41 -3.66,0.105 -0.855,1.35 0.385,2.42 2.04,2.85 1.83,0.475 2.885,0.335 2.885,0.335 0,0 0.44,-0.895 0.615,-1.39 0.185,-0.505 0.9,-1.525 0.9,-1.525 z"
               id="path18" />
            <path
               style="fill:#e4dda2;stroke-width:0.5"
               d="m 124.39516,165.19888 c 0,0 -2.04,0.28 -3.025,0.28 -1.02,0 -3.6,-0.24 -3.545,2.135 0.045,2.04 2.81,1.87 3.52,1.855 1.01,-0.025 3.645,-0.5 3.645,-0.5 0,0 -0.45,-0.8 -0.58,-1.92 -0.1,-0.82 -0.015,-1.85 -0.015,-1.85 z"
               id="path19" />
            <path
               style="fill:#e4dda2;stroke-width:0.5"
               d="m 126.44516,170.43388 c 0,0 -0.33,1.485 -0.81,2.57 -0.53,1.195 -1.76,3.24 0.74,4.19 2.31,0.88 3.24,-0.775 3.66,-2.64 0.39,-1.735 0.42,-3.15 0.42,-3.15 0,0 -1.22,-0.055 -2.23,-0.285 -0.81,-0.195 -1.78,-0.685 -1.78,-0.685 z"
               id="path20" />
            <path
               style="fill:#e4dda2;stroke-width:0.5"
               d="m 134.29516,171.14888 c 0,0 1.655,1.445 2.18,2.18 0.53,0.74 1.735,2.97 3.66,2.005 1.69,-0.845 0.325,-3.425 -0.495,-4.365 -0.685,-0.785 -1.725,-1.64 -2.71,-2.205 -0.66,-0.375 -1.22,-0.47 -1.22,-0.47 0,0 0.115,1.03 -0.19,1.76 -0.32,0.785 -1.225,1.095 -1.225,1.095 z"
               id="path21" />
            <path
               style="fill:#e4dda2;stroke-width:0.5"
               d="m 136.48016,166.27888 c 0.17,0.58 0.675,0.605 1.795,0.14 1.195,-0.495 2.815,-0.74 4.155,-0.74 1.585,0 3.13,1.055 3.695,1.515 0.565,0.46 1.245,0.62 1.35,-0.26 0.105,-0.88 -0.53,-1.865 -1.76,-2.745 -0.75,-0.535 -2.09,-1.36 -3.67,-1.395 -1.685,-0.035 -3.24,0.565 -4.225,1.195 -0.61,0.395 -1.625,1.34 -1.34,2.29 z"
               id="path22" />
          </g>
          <g
             id="g35"
             transform="matrix(0.11839303,0.11839303,-0.11839303,0.11839303,162.72633,137.68066)"
             inkscape:label="rotated-glasses"
             style="display:inline">
            <path
               id="path23"
               style="fill:#000000;stroke-width:0.264583"
               d="m 0,-5.29167 v 1.05833 1.05834 h 1.058334 1.058333 v 1.05833 1.05833 H 3.175 4.233334 V 0 1.05833 H 5.291667 6.35 V 2.11666 3.175 h 1.058334 1.058333 v 1.05833 1.05833 h 6.35 6.35 V 4.23333 3.175 H 22.225 23.283334 V 2.11666 1.05833 H 24.341667 25.4 V 0 -1.05834 h 1.058334 1.058333 V -2.11667 -3.175 H 28.575 29.633334 V -4.23334 -5.29167 H 14.816667 Z"
               inkscape:label="glass-bg" />
            <g
               id="g28"
               inkscape:label="glass-fg"
               transform="translate(-55,-155.29167)">
              <path
                 id="path24"
                 style="fill:#ffffff;fill-opacity:1;stroke:none;stroke-width:0.264583px;stroke-linecap:butt;stroke-linejoin:miter;stroke-opacity:1"
                 d="M 67.699744,156.35015 H 66.64141 65.583077 v 1.05833 1.05833 h 1.058333 1.058334 v -1.05833 z" />
              <path
                 id="path25"
                 style="fill:#ffffff;fill-opacity:1;stroke:none;stroke-width:0.264583px;stroke-linecap:butt;stroke-linejoin:miter;stroke-opacity:1"
                 d="m 67.699744,154.23348 v 1.05833 1.05834 h 1.058333 1.058333 v -1.05834 -1.05833 h -1.058333 z" />
              <path
                 id="path26"
                 style="fill:#ffffff;fill-opacity:1;stroke:none;stroke-width:0.264583px;stroke-linecap:butt;stroke-linejoin:miter;stroke-opacity:1"
                 d="m 65.583077,154.23348 h 1.058333 1.058334 v -1.05833 -1.05834 H 66.64141 65.583077 v 1.05834 z" />
              <path
                 id="path27"
                 style="fill:#ffffff;fill-opacity:1;stroke:none;stroke-width:0.264583px;stroke-linecap:butt;stroke-linejoin:miter;stroke-opacity:1"
                 d="m 63.46641,154.23348 v 1.05833 1.05834 h 1.058334 1.058333 v -1.05834 -1.05833 h -1.058333 z" />
              <path
                 id="path28"
                 style="fill:#ffffff;fill-opacity:1;stroke:none;stroke-width:0.264583px;stroke-linecap:butt;stroke-linejoin:miter;stroke-opacity:1"
                 d="m 61.349744,152.11681 v 1.05834 1.05833 h 1.058333 1.058333 v -1.05833 -1.05834 h -1.058333 z" />
            </g>
            <path
               id="path29"
               style="fill:#000000;stroke-width:0.264583"
               d="m 29.633,-5.29167 v 1.05833 1.05834 h 1.058334 1.058333 v 1.05833 1.05833 H 32.808 33.866334 V 0 1.05833 H 34.924667 35.983 V 2.11666 3.175 h 1.058334 1.058333 v 1.05833 1.05833 h 6.35 6.35 V 4.23333 3.175 H 51.858 52.916334 V 2.11666 1.05833 H 53.974667 55.033 V 0 -1.05834 h 1.058334 1.058333 V -2.11667 -3.175 H 58.208 59.266334 V -4.23334 -5.29167 H 44.449667 Z"
               inkscape:label="glass-bg" />
            <g
               id="g34"
               inkscape:label="glass-fg"
               transform="translate(-25.367,-155.29167)">
              <path
                 id="path30"
                 style="fill:#ffffff;fill-opacity:1;stroke:none;stroke-width:0.264583px;stroke-linecap:butt;stroke-linejoin:miter;stroke-opacity:1"
                 d="M 67.699744,156.35015 H 66.64141 65.583077 v 1.05833 1.05833 h 1.058333 1.058334 v -1.05833 z" />
              <path
                 id="path31"
                 style="fill:#ffffff;fill-opacity:1;stroke:none;stroke-width:0.264583px;stroke-linecap:butt;stroke-linejoin:miter;stroke-opacity:1"
                 d="m 67.699744,154.23348 v 1.05833 1.05834 h 1.058333 1.058333 v -1.05834 -1.05833 h -1.058333 z" />
              <path
                 id="path32"
                 style="fill:#ffffff;fill-opacity:1;stroke:none;stroke-width:0.264583px;stroke-linecap:butt;stroke-linejoin:miter;stroke-opacity:1"
                 d="m 65.583077,154.23348 h 1.058333 1.058334 v -1.05833 -1.05834 H 66.64141 65.583077 v 1.05834 z" />
              <path
                 id="path33"
                 style="fill:#ffffff;fill-opacity:1;stroke:none;stroke-width:0.264583px;stroke-linecap:butt;stroke-linejoin:miter;stroke-opacity:1"
                 d="m 63.46641,154.23348 v 1.05833 1.05834 h 1.058334 1.058333 v -1.05834 -1.05833 h -1.058333 z" />
              <path
                 id="path34"
                 style="fill:#ffffff;fill-opacity:1;stroke:none;stroke-width:0.264583px;stroke-linecap:butt;stroke-linejoin:miter;stroke-opacity:1"
                 d="m 61.349744,152.11681 v 1.05834 1.05833 h 1.058333 1.058333 v -1.05833 -1.05834 h -1.058333 z" />
            </g>
          </g>
        </g>
      </g>
    </g>
    <g
       id="g151"
       transform="translate(42.567359,61.615915)">
      <path
         id="text113-9-3-5-7"
         style="font-weight:300;font-size:5.64444px;line-height:1.25;font-family:Oswald;-inkscape-font-specification:'Oswald Light';font-variation-settings:'wght' 500;fill:#7f7f7f;fill-opacity:1;stroke-width:0.264583"
         d="m 57.282468,158.25575 q -0.197556,0 -0.344311,-0.1016 -0.141111,-0.1016 -0.237067,-0.20884 v 0.25964 h -0.412044 v -4.57199 h 0.412044 v 1.58044 q 0.09596,-0.12418 0.248356,-0.22013 0.1524,-0.1016 0.372533,-0.1016 0.237066,0 0.383822,0.11288 0.146755,0.10725 0.225777,0.29352 0.07902,0.18626 0.107245,0.41768 0.02822,0.23143 0.02822,0.47414 v 0.68862 q 0,0.41769 -0.07338,0.72813 -0.06773,0.3048 -0.237066,0.47978 -0.169334,0.16933 -0.474133,0.16933 z m -0.07338,-0.32738 q 0.191911,0 0.282222,-0.11853 0.09595,-0.11853 0.124178,-0.34995 0.03387,-0.23707 0.03387,-0.57009 v -0.69991 q 0,-0.31609 -0.03387,-0.53058 -0.02822,-0.22013 -0.124178,-0.33302 -0.09031,-0.11289 -0.287866,-0.11289 -0.1524,0 -0.287867,0.0847 -0.129822,0.0847 -0.214489,0.16933 v 2.22391 q 0.09031,0.0959 0.220133,0.16933 0.129823,0.0677 0.287867,0.0677 z m 1.33209,1.08938 v -0.32173 q 0.282222,0 0.423333,-0.0452 0.146755,-0.0395 0.191911,-0.11853 0.0508,-0.0734 0.0508,-0.17498 0,-0.0903 -0.03387,-0.23706 -0.03387,-0.14676 -0.07338,-0.3048 l -0.671689,-2.87302 h 0.412044 l 0.564444,2.77706 0.547511,-2.77706 h 0.417689 l -0.790222,3.4939 q -0.04516,0.20885 -0.163689,0.33303 -0.112889,0.12982 -0.3048,0.18626 -0.186266,0.0621 -0.462844,0.0621 z m 4.165602,-0.77329 q -0.237066,0 -0.366888,-0.0903 -0.124178,-0.0959 -0.174978,-0.254 -0.04516,-0.16369 -0.04516,-0.37253 v -2.31422 h -0.400755 v -0.27093 h 0.400755 v -1.01036 h 0.412045 v 1.01036 h 0.541864 v 0.27093 h -0.541864 v 2.27471 q 0,0.23706 0.0508,0.33866 0.05644,0.096 0.237074,0.096 0.0508,0 0.11289,-0.006 0.0677,-0.0113 0.12417,-0.0226 v 0.31609 q -0.0847,0.0169 -0.17497,0.0226 -0.0903,0.0113 -0.174986,0.0113 z m 0.812803,-0.0395 v -4.57199 h 0.41205 v 1.65382 q 0.16369,-0.17498 0.36124,-0.28223 0.19756,-0.11288 0.43462,-0.11288 0.16369,0 0.27094,0.0847 0.11288,0.079 0.16933,0.23707 0.0621,0.1524 0.0621,0.37253 v 2.61902 h -0.41769 v -2.52871 q 0,-0.254 -0.079,-0.3556 -0.0734,-0.10724 -0.23142,-0.10724 -0.14112,0 -0.29352,0.0903 -0.14675,0.0847 -0.27657,0.22013 v 2.68111 z m 3.13831,0.0508 q -0.30479,0 -0.50235,-0.11853 -0.19191,-0.12418 -0.28787,-0.4064 -0.0903,-0.28222 -0.0903,-0.75071 v -0.82409 q 0,-0.48542 0.096,-0.75635 0.096,-0.27658 0.29351,-0.38947 0.19755,-0.11853 0.49671,-0.11853 0.34431,0 0.52493,0.14675 0.18062,0.14676 0.24836,0.44591 0.0734,0.29351 0.0734,0.75636 v 0.29351 h -1.3208 v 0.57009 q 0,0.31608 0.0452,0.50235 0.0508,0.18062 0.1524,0.25965 0.10725,0.079 0.27093,0.079 0.12418,0 0.22578,-0.0452 0.1016,-0.0508 0.15805,-0.18626 0.0621,-0.14112 0.0621,-0.39512 v -0.22577 h 0.40075 v 0.18062 q 0,0.44591 -0.18627,0.71684 -0.18062,0.26529 -0.6604,0.26529 z m -0.46848,-1.95862 h 0.9144 v -0.27093 q 0,-0.25965 -0.0282,-0.44027 -0.0282,-0.18626 -0.12417,-0.28222 -0.0903,-0.1016 -0.29352,-0.1016 -0.16933,0 -0.27657,0.0734 -0.1016,0.0734 -0.14676,0.26529 -0.0452,0.18626 -0.0452,0.53622 z m 4.08658,1.96427 q -0.37254,0 -0.62089,-0.1524 -0.24271,-0.15805 -0.36689,-0.43463 -0.12418,-0.28222 -0.1524,-0.65475 l 0.37818,-0.11289 q 0.0282,0.28222 0.1016,0.51364 0.0734,0.22578 0.23142,0.36125 0.15804,0.12982 0.43462,0.12982 0.3048,0 0.47413,-0.15804 0.16934,-0.15805 0.16934,-0.50236 0,-0.3048 -0.1524,-0.52493 -0.14676,-0.22013 -0.4064,-0.46285 l -0.80716,-0.77328 q -0.21449,-0.20885 -0.31609,-0.42898 -0.1016,-0.22578 -0.1016,-0.49107 0,-0.47413 0.28223,-0.72813 0.28222,-0.254 0.75071,-0.254 0.24271,0 0.43462,0.0621 0.19755,0.0621 0.33302,0.2032 0.14111,0.13547 0.22013,0.3556 0.079,0.22013 0.10725,0.53622 l -0.36689,0.096 q -0.0226,-0.28787 -0.096,-0.49107 -0.0677,-0.20885 -0.22013,-0.31609 -0.14675,-0.10724 -0.41204,-0.10724 -0.28223,0 -0.46285,0.14675 -0.18062,0.14676 -0.18062,0.4572 0,0.18627 0.0677,0.33867 0.0734,0.1524 0.254,0.32738 l 0.80716,0.76199 q 0.27093,0.254 0.46849,0.56445 0.19755,0.31044 0.19755,0.69991 0,0.34431 -0.13546,0.57573 -0.12983,0.23142 -0.36689,0.34996 -0.23707,0.11289 -0.54751,0.11289 z m 1.54092,-0.0564 v -3.26248 h 0.41205 v 0.33866 q 0.15804,-0.16933 0.3556,-0.27658 0.19755,-0.11288 0.42898,-0.11288 0.16368,0 0.27657,0.0847 0.11289,0.079 0.16934,0.23707 0.0564,0.1524 0.0564,0.37253 v 2.61902 h -0.41204 v -2.52871 q 0,-0.254 -0.079,-0.3556 -0.0734,-0.10724 -0.23142,-0.10724 -0.14111,0 -0.28786,0.0847 -0.14676,0.0847 -0.27658,0.22013 v 2.68675 z m 2.80529,0.0508 q -0.19191,0 -0.33866,-0.0959 -0.14676,-0.1016 -0.23143,-0.26529 -0.0847,-0.16934 -0.0847,-0.36689 0,-0.24836 0.0734,-0.42333 0.0734,-0.17498 0.22578,-0.31045 0.1524,-0.14111 0.4064,-0.27093 0.254,-0.13547 0.6096,-0.29916 v -0.23142 q 0,-0.29915 -0.0339,-0.46849 -0.0339,-0.17497 -0.12417,-0.24835 -0.0847,-0.0734 -0.24836,-0.0734 -0.12418,0 -0.23142,0.0508 -0.1016,0.0508 -0.16369,0.17498 -0.0564,0.11853 -0.0564,0.33302 v 0.11289 l -0.4064,-0.006 q 0.006,-0.49671 0.20884,-0.73377 0.20885,-0.24271 0.67169,-0.24271 0.44027,0 0.61524,0.26528 0.18063,0.25965 0.18063,0.8128 v 1.58609 q 0,0.0847 0.006,0.22013 0.006,0.12983 0.0113,0.24836 0.0113,0.11853 0.0169,0.18062 h -0.36689 q -0.0169,-0.10724 -0.0395,-0.23706 -0.0169,-0.13547 -0.0226,-0.21449 -0.0677,0.19755 -0.24271,0.34995 -0.17497,0.1524 -0.43462,0.1524 z m 0.13547,-0.34995 q 0.12418,0 0.22013,-0.0621 0.1016,-0.0621 0.18062,-0.14676 0.079,-0.0903 0.12418,-0.18062 v -1.016 q -0.23706,0.12418 -0.41204,0.22578 -0.16934,0.1016 -0.27658,0.19755 -0.10724,0.096 -0.16369,0.22014 -0.0508,0.11853 -0.0508,0.28222 0,0.25964 0.11289,0.37253 0.11289,0.10725 0.26529,0.10725 z m 1.54658,0.29915 v -4.57199 h 0.41204 v 2.90124 l 1.08938,-1.59173 h 0.43462 l -0.82409,1.25871 0.79022,2.00377 h -0.41769 l -0.68862,-1.77235 -0.38382,0.53622 v 1.23613 z m 3.05928,0.0508 q -0.3048,0 -0.50236,-0.11853 -0.19191,-0.12418 -0.28786,-0.4064 -0.0903,-0.28222 -0.0903,-0.75071 v -0.82409 q 0,-0.48542 0.096,-0.75635 0.096,-0.27658 0.29351,-0.38947 0.19756,-0.11853 0.49671,-0.11853 0.34431,0 0.52493,0.14675 0.18063,0.14676 0.24836,0.44591 0.0734,0.29351 0.0734,0.75636 v 0.29351 h -1.3208 v 0.57009 q 0,0.31608 0.0452,0.50235 0.0508,0.18062 0.1524,0.25965 0.10725,0.079 0.27094,0.079 0.12417,0 0.22577,-0.0452 0.1016,-0.0508 0.15805,-0.18626 0.0621,-0.14112 0.0621,-0.39512 V 157.093 h 0.40075 v 0.18062 q 0,0.44591 -0.18626,0.71684 -0.18063,0.26529 -0.6604,0.26529 z m -0.46849,-1.95862 h 0.9144 v -0.27093 q 0,-0.25965 -0.0282,-0.44027 -0.0282,-0.18626 -0.12418,-0.28222 -0.0903,-0.1016 -0.29351,-0.1016 -0.16934,0 -0.27658,0.0734 -0.1016,0.0734 -0.14676,0.26529 -0.0452,0.18626 -0.0452,0.53622 z m 2.60209,1.95862 q -0.41769,0 -0.60396,-0.31609 -0.18062,-0.31609 -0.18062,-1.04986 v -0.60402 q 0,-0.42898 0.0621,-0.73942 0.0621,-0.31044 0.22578,-0.47978 0.16933,-0.17497 0.47978,-0.17497 0.19191,0 0.33302,0.0903 0.14675,0.0847 0.24271,0.19191 v -1.54093 h 0.41204 v 4.57199 h -0.41204 v -0.23142 q -0.096,0.10724 -0.23707,0.19756 -0.13546,0.0847 -0.32173,0.0847 z m 0.0847,-0.32738 q 0.13546,0 0.25399,-0.0621 0.12418,-0.0621 0.22014,-0.1524 v -2.26907 q -0.0847,-0.079 -0.20885,-0.1524 -0.12417,-0.079 -0.27657,-0.079 -0.27094,0 -0.36125,0.24271 -0.0847,0.23707 -0.0847,0.69427 v 0.77328 q 0,0.32738 0.0339,0.55316 0.0395,0.22578 0.13547,0.33867 0.1016,0.11288 0.28787,0.11288 z m 2.0207,0.32738 q -0.19191,0 -0.33866,-0.0959 -0.14676,-0.1016 -0.23142,-0.26529 -0.0847,-0.16934 -0.0847,-0.36689 0,-0.24836 0.0734,-0.42333 0.0734,-0.17498 0.22578,-0.31045 0.15239,-0.14111 0.40639,-0.27093 0.254,-0.13547 0.6096,-0.29916 v -0.23142 q 0,-0.29915 -0.0339,-0.46849 -0.0339,-0.17497 -0.12418,-0.24835 -0.0847,-0.0734 -0.24836,-0.0734 -0.12417,0 -0.23142,0.0508 -0.1016,0.0508 -0.16369,0.17498 -0.0564,0.11853 -0.0564,0.33302 v 0.11289 l -0.4064,-0.006 q 0.006,-0.49671 0.20884,-0.73377 0.20885,-0.24271 0.67169,-0.24271 0.44027,0 0.61525,0.26528 0.18062,0.25965 0.18062,0.8128 v 1.58609 q 0,0.0847 0.006,0.22013 0.006,0.12983 0.0113,0.24836 0.0113,0.11853 0.0169,0.18062 h -0.36689 q -0.0169,-0.10724 -0.0395,-0.23706 -0.0169,-0.13547 -0.0226,-0.21449 -0.0677,0.19755 -0.24271,0.34995 -0.17498,0.1524 -0.43463,0.1524 z m 0.13547,-0.34995 q 0.12418,0 0.22013,-0.0621 0.1016,-0.0621 0.18063,-0.14676 0.079,-0.0903 0.12417,-0.18062 v -1.016 q -0.23706,0.12418 -0.41204,0.22578 -0.16933,0.1016 -0.27658,0.19755 -0.10724,0.096 -0.16369,0.22014 -0.0508,0.11853 -0.0508,0.28222 0,0.25964 0.11289,0.37253 0.11289,0.10725 0.26529,0.10725 z m 2.02071,0.34995 q -0.16369,0 -0.27658,-0.0847 -0.11288,-0.0847 -0.17497,-0.23707 -0.0564,-0.1524 -0.0564,-0.37253 v -2.61902 h 0.41769 v 2.5287 q 0,0.254 0.0734,0.3556 0.079,0.1016 0.23707,0.1016 0.14675,0 0.29351,-0.0903 0.1524,-0.0903 0.28222,-0.23142 v -2.66417 h 0.41204 v 3.26248 h -0.41204 v -0.36124 q -0.15805,0.18062 -0.36125,0.29915 -0.2032,0.11289 -0.43462,0.11289 z m 2.68111,1.02165 q -0.32173,0 -0.56444,-0.0621 -0.23707,-0.0621 -0.36689,-0.19756 -0.12418,-0.12982 -0.12418,-0.33302 0,-0.16933 0.0903,-0.31609 0.0903,-0.14111 0.22578,-0.24835 0.13547,-0.10725 0.27658,-0.16934 l 0.22578,0.0508 q -0.0847,0.0565 -0.19756,0.14111 -0.10724,0.0847 -0.18626,0.19191 -0.0734,0.10725 -0.0734,0.24271 0,0.19192 0.17498,0.27658 0.17497,0.0903 0.53622,0.0903 0.33302,0 0.53057,-0.1016 0.2032,-0.0959 0.2032,-0.31609 0,-0.11288 -0.0508,-0.19755 -0.0451,-0.079 -0.17497,-0.14111 -0.12983,-0.0621 -0.38947,-0.1016 l -0.56444,-0.0903 q -0.23707,-0.0452 -0.34996,-0.14111 -0.10724,-0.096 -0.10724,-0.24271 0,-0.18063 0.11853,-0.32174 0.12418,-0.14675 0.32173,-0.31609 l 0.15805,0.11289 q -0.0847,0.0903 -0.16934,0.2032 -0.079,0.10725 -0.079,0.2032 0,0.0847 0.0621,0.12982 0.0677,0.0395 0.20885,0.0621 l 0.53622,0.079 q 0.39511,0.0564 0.60395,0.23706 0.21449,0.18062 0.21449,0.51365 0,0.25964 -0.14111,0.42897 -0.13547,0.17498 -0.38382,0.254 -0.24271,0.079 -0.56445,0.079 z m 0.0282,-2.09974 q -0.32738,0 -0.53623,-0.1524 -0.2032,-0.1524 -0.29915,-0.41204 -0.096,-0.25964 -0.096,-0.58138 0,-0.31609 0.096,-0.57009 0.1016,-0.25964 0.3048,-0.41204 0.2032,-0.15804 0.51929,-0.15804 0.31044,0 0.51364,0.16368 0.2032,0.15805 0.29916,0.42334 0.1016,0.25964 0.1016,0.5588 0,0.32737 -0.0903,0.58702 -0.0903,0.25964 -0.28787,0.4064 -0.19756,0.14675 -0.52493,0.14675 z m 0,-0.29915 q 0.17497,0 0.27657,-0.0734 0.10725,-0.079 0.15805,-0.2032 0.0564,-0.12418 0.0734,-0.27093 0.0169,-0.1524 0.0169,-0.29916 0,-0.14675 -0.0226,-0.29351 -0.0169,-0.14675 -0.0734,-0.27093 -0.0564,-0.12418 -0.16368,-0.19756 -0.1016,-0.079 -0.27094,-0.079 -0.16933,0 -0.27658,0.079 -0.1016,0.079 -0.16368,0.20885 -0.0621,0.12417 -0.0847,0.27093 -0.0169,0.14111 -0.0169,0.28222 0,0.13547 0.0169,0.28787 0.0226,0.14675 0.079,0.27658 0.0564,0.12417 0.16369,0.2032 0.10724,0.079 0.28787,0.079 z m 0.77893,-1.38289 -0.096,-0.17498 q 0.0564,-0.11289 0.19756,-0.23142 0.14675,-0.11853 0.33867,-0.19191 l 0.11288,0.28787 q -0.096,0.0226 -0.21448,0.0734 -0.11289,0.0508 -0.20885,0.11289 -0.096,0.0621 -0.12982,0.12418 z m 0.8128,2.70933 v -4.57199 h 0.41204 v 1.65382 q 0.16369,-0.17498 0.36125,-0.28223 0.19755,-0.11288 0.43462,-0.11288 0.16369,0 0.27093,0.0847 0.11289,0.079 0.16934,0.23707 0.0621,0.1524 0.0621,0.37253 v 2.61902 h -0.4177 v -2.52871 q 0,-0.254 -0.079,-0.3556 -0.0734,-0.10724 -0.23142,-0.10724 -0.14111,0 -0.29351,0.0903 -0.14675,0.0847 -0.27658,0.22013 v 2.68111 z m 3.09316,0.0395 q -0.23707,0 -0.36689,-0.0903 -0.12418,-0.0959 -0.17498,-0.254 -0.0452,-0.16369 -0.0452,-0.37253 v -2.31422 h -0.40075 v -0.27093 h 0.40075 v -1.01036 h 0.41205 v 1.01036 h 0.54186 v 0.27093 h -0.54186 v 2.27471 q 0,0.23706 0.0508,0.33866 0.0564,0.096 0.23706,0.096 0.0508,0 0.11289,-0.006 0.0677,-0.0113 0.12418,-0.0226 v 0.31609 q -0.0847,0.0169 -0.17498,0.0226 -0.0903,0.0113 -0.17497,0.0113 z m 1.6256,0.0113 q -0.3048,0 -0.50236,-0.11853 -0.19191,-0.12418 -0.28786,-0.4064 -0.0903,-0.28222 -0.0903,-0.75071 v -0.82409 q 0,-0.48542 0.0959,-0.75635 0.096,-0.27658 0.29351,-0.38947 0.19756,-0.11853 0.49671,-0.11853 0.34431,0 0.52494,0.14675 0.18062,0.14676 0.24835,0.44591 0.0734,0.29351 0.0734,0.75636 v 0.29351 h -1.3208 v 0.57009 q 0,0.31608 0.0452,0.50235 0.0508,0.18062 0.1524,0.25965 0.10724,0.079 0.27093,0.079 0.12418,0 0.22578,-0.0452 0.1016,-0.0508 0.15804,-0.18626 0.0621,-0.14112 0.0621,-0.39512 V 157.093 h 0.40075 v 0.18062 q 0,0.44591 -0.18626,0.71684 -0.18062,0.26529 -0.6604,0.26529 z m -0.46849,-1.95862 h 0.9144 v -0.27093 q 0,-0.25965 -0.0282,-0.44027 -0.0282,-0.18626 -0.12418,-0.28222 -0.0903,-0.1016 -0.29351,-0.1016 -0.16933,0 -0.27658,0.0734 -0.1016,0.0734 -0.14675,0.26529 -0.0452,0.18626 -0.0452,0.53622 z m 1.90782,1.90782 v -3.26248 h 0.41769 v 0.44591 q 0.15805,-0.25965 0.36125,-0.36689 0.2032,-0.11289 0.38946,-0.11289 0.0169,0 0.0339,0 0.0169,0 0.0395,0.006 v 0.44027 q -0.0395,-0.0169 -0.0959,-0.0226 -0.0565,-0.0113 -0.10725,-0.0113 -0.19191,0 -0.34995,0.0903 -0.1524,0.0903 -0.27094,0.28787 v 2.50613 z m 3.951107,0.0564 q -0.462837,0 -0.716837,-0.19191 -0.24835,-0.19192 -0.34431,-0.51365 -0.096,-0.32738 -0.096,-0.72249 v -1.81752 q 0,-0.42333 0.096,-0.74506 0.1016,-0.32174 0.3556,-0.50236 0.254,-0.18062 0.705547,-0.18062 0.41205,0 0.64347,0.15804 0.23707,0.15805 0.33867,0.45156 0.1016,0.28787 0.1016,0.68862 v 0.27658 h -0.4064 v -0.26529 q 0,-0.29916 -0.0508,-0.51364 -0.0452,-0.21449 -0.19191,-0.33303 -0.14676,-0.11853 -0.42898,-0.11853 -0.310447,0 -0.468487,0.12982 -0.1524,0.12418 -0.20884,0.3556 -0.0508,0.23142 -0.0508,0.53622 v 1.94734 q 0,0.33866 0.0621,0.56444 0.0677,0.22578 0.22577,0.33867 0.15805,0.11289 0.440267,0.11289 0.28787,0 0.42898,-0.12418 0.14675,-0.12418 0.19191,-0.34431 0.0508,-0.22578 0.0508,-0.52494 v -0.29915 h 0.4064 v 0.27093 q 0,0.40076 -0.096,0.7112 -0.0903,0.3048 -0.32738,0.47978 -0.23142,0.17498 -0.6604,0.17498 z m 1.69899,-0.0564 v -3.26248 h 0.41769 v 0.44591 q 0.15804,-0.25965 0.36124,-0.36689 0.2032,-0.11289 0.38947,-0.11289 0.0169,0 0.0339,0 0.0169,0 0.0395,0.006 v 0.44027 q -0.0395,-0.0169 -0.0959,-0.0226 -0.0565,-0.0113 -0.10725,-0.0113 -0.19191,0 -0.34995,0.0903 -0.1524,0.0903 -0.27093,0.28787 v 2.50613 z m 2.44969,0.0508 q -0.3048,0 -0.50236,-0.11853 -0.19191,-0.12418 -0.28786,-0.4064 -0.0903,-0.28222 -0.0903,-0.75071 v -0.82409 q 0,-0.48542 0.0959,-0.75635 0.096,-0.27658 0.29351,-0.38947 0.19756,-0.11853 0.49671,-0.11853 0.34431,0 0.52494,0.14675 0.18062,0.14676 0.24835,0.44591 0.0734,0.29351 0.0734,0.75636 v 0.29351 h -1.3208 v 0.57009 q 0,0.31608 0.0452,0.50235 0.0508,0.18062 0.1524,0.25965 0.10724,0.079 0.27093,0.079 0.12418,0 0.22578,-0.0452 0.1016,-0.0508 0.15804,-0.18626 0.0621,-0.14112 0.0621,-0.39512 V 157.093 h 0.40075 v 0.18062 q 0,0.44591 -0.18626,0.71684 -0.18062,0.26529 -0.6604,0.26529 z m -0.46849,-1.95862 h 0.9144 v -0.27093 q 0,-0.25965 -0.0282,-0.44027 -0.0282,-0.18626 -0.12418,-0.28222 -0.0903,-0.1016 -0.29351,-0.1016 -0.16933,0 -0.27658,0.0734 -0.1016,0.0734 -0.14675,0.26529 -0.0452,0.18626 -0.0452,0.53622 z m 2.25777,1.90782 -0.53057,-3.26248 h 0.3556 l 0.40639,2.72626 0.51365,-2.72626 h 0.3556 l 0.51929,2.71497 0.38946,-2.71497 h 0.3556 l -0.53057,3.26248 h -0.38383 l -0.52493,-2.65289 -0.508,2.65289 z" />
      <path
         id="path109-7"
         style="font-weight:500;font-size:5.64444px;line-height:1.25;font-family:Oswald;-inkscape-font-specification:'Oswald Medium';font-variation-settings:'wght' 500;fill:#bed04a;fill-opacity:1;stroke-width:0.264583"
         d="m 32.034766,158.30091 q -0.412044,0 -0.672011,-0.15804 -0.259374,-0.16369 -0.367855,-0.47414 -0.108482,-0.31044 -0.07796,-0.762 l 0.731676,-0.14111 q -0.01659,0.26529 0.01285,0.46849 0.03508,0.2032 0.130467,0.31609 0.101617,0.10724 0.28224,0.10724 0.203199,0 0.300324,-0.11853 0.09772,-0.12418 0.117298,-0.31044 0.03144,-0.29916 -0.08385,-0.49107 -0.115297,-0.19191 -0.320903,-0.38382 l -0.52234,-0.508 q -0.22076,-0.20885 -0.340819,-0.46285 -0.113821,-0.25964 -0.07407,-0.63782 0.05695,-0.54186 0.403889,-0.83537 0.346939,-0.29352 0.89445,-0.29352 0.321733,0 0.525542,0.1016 0.204399,0.096 0.31019,0.27094 0.111431,0.17498 0.149791,0.40075 0.03895,0.22014 0.02978,0.46849 l -0.724252,0.12418 q 0.01125,-0.21449 -0.01046,-0.38382 -0.01607,-0.16934 -0.101939,-0.26529 -0.08022,-0.096 -0.260843,-0.096 -0.186266,0 -0.300918,0.12418 -0.108418,0.11853 -0.127403,0.29916 -0.02432,0.23142 0.05562,0.38382 0.08053,0.14675 0.244541,0.3048 l 0.51729,0.50235 q 0.257305,0.23707 0.421045,0.5588 0.169978,0.31609 0.122517,0.76765 -0.03441,0.32737 -0.20786,0.58137 -0.167807,0.254 -0.442877,0.40076 -0.268831,0.14111 -0.613142,0.14111 z m 1.643412,-0.0621 0.480537,-4.572 h 0.581377 l 0.83787,2.60774 0.274085,-2.60774 h 0.688622 l -0.480537,4.572 h -0.553155 l -0.830464,-2.73191 -0.287136,2.73191 z m 2.844798,0 1.394936,-4.572 h 0.891821 l 0.433863,4.572 h -0.773289 l -0.06968,-1.05551 h -0.795866 l -0.297205,1.05551 z m 1.222215,-1.58609 h 0.620888 l -0.108737,-1.91911 z m 1.955601,1.58609 0.480537,-4.572 h 0.83538 l -0.2112,2.00943 1.11431,-2.00943 h 0.79586 l -1.089649,2.04329 0.699422,2.52871 h -0.82973 l -0.548729,-2.0828 -0.228692,0.34996 -0.182129,1.73284 z m 3.00284,0 0.480537,-4.572 h 1.91911 l -0.0617,0.58703 h -1.08373 l -0.138227,1.31515 h 0.85231 l -0.06111,0.58138 h -0.85231 l -0.158992,1.51271 h 1.09502 l -0.06051,0.57573 z" />
      <path
         id="text113-9-1-6"
         style="font-weight:500;font-size:5.64444px;line-height:1.25;font-family:Oswald;-inkscape-font-specification:'Oswald Medium';font-variation-settings:'wght' 500;fill:#feb30b;fill-opacity:1;stroke-width:0.264583"
         d="m 15.694999,158.23881 1.394937,-4.572 h 0.891821 l 0.433862,4.572 h -0.773288 l -0.06968,-1.05551 h -0.795866 l -0.297206,1.05551 z m 1.222216,-1.58609 h 0.620888 l -0.108737,-1.91911 z m 1.955601,1.58609 0.480537,-4.572 h 1.095021 q 0.462844,0 0.767068,0.11289 0.31046,0.10725 0.446266,0.37254 0.14145,0.26529 0.0934,0.72248 -0.02907,0.27658 -0.103007,0.49672 -0.07394,0.22013 -0.214725,0.37817 -0.134551,0.1524 -0.357939,0.23707 l 0.401113,2.25213 h -0.83538 l -0.333057,-2.09409 h -0.383822 l -0.220098,2.09409 z m 1.110647,-2.61902 h 0.259644 q 0.242711,0 0.390938,-0.0677 0.15447,-0.0734 0.232574,-0.22578 0.0787,-0.15804 0.104212,-0.40076 0.03619,-0.34431 -0.07584,-0.51364 -0.105787,-0.17498 -0.461387,-0.17498 h -0.304799 z m 2.055888,2.61902 0.480537,-4.572 h 1.91911 l -0.0617,0.58703 h -1.083733 l -0.138227,1.31515 h 0.852311 l -0.06111,0.58138 h -0.852311 l -0.158992,1.51271 h 1.095022 l -0.06051,0.57573 z m 2.895595,0 -0.168573,-4.572 h 0.69991 l 0.06672,2.96334 0.784406,-2.95205 h 0.570088 l 0.175149,2.95205 0.683993,-2.96334 h 0.688622 l -1.118359,4.572 h -0.677333 l -0.185862,-3.06493 -0.824493,3.06493 z m 3.539064,0 0.480537,-4.572 h 1.919109 l -0.0617,0.58703 h -1.083732 l -0.138227,1.31515 h 0.85231 l -0.06111,0.58138 h -0.85231 l -0.158992,1.51271 h 1.095021 l -0.06051,0.57573 z m 17.283262,0 0.183316,-1.74413 -0.628469,-2.82787 h 0.77893 l 0.374015,1.81187 0.721005,-1.81187 h 0.762 l -1.211621,2.82787 -0.183316,1.74413 z m 2.11102,0 0.480537,-4.572 h 1.91911 l -0.0617,0.58703 h -1.08374 l -0.138227,1.31515 h 0.85231 l -0.06111,0.58138 h -0.85231 l -0.158992,1.51271 h 1.09503 l -0.06051,0.57573 z m 2.87301,0 0.415871,-3.95675 h -0.72813 l 0.06467,-0.61525 h 2.28036 l -0.06467,0.61525 h -0.71685 l -0.415871,3.95675 z m 2.556157,-1.17404 0.07534,-0.71685 q 0.288426,-0.22013 0.528426,-0.46284 0.240594,-0.24836 0.393833,-0.52493 0.158899,-0.27658 0.190935,-0.58138 0.02492,-0.23707 -0.06869,-0.36689 -0.08736,-0.13547 -0.296202,-0.13547 -0.17498,0 -0.292898,0.1016 -0.112279,0.1016 -0.13067,0.27658 -0.0083,0.079 0.0015,0.14676 0.0098,0.0677 0.02408,0.14675 l -0.721568,0.1524 q -0.02204,-0.11289 -0.03326,-0.22013 -0.01073,-0.11289 0.0011,-0.22578 0.04983,-0.47413 0.373006,-0.75635 0.323183,-0.28223 0.859403,-0.28223 0.5588,0 0.826507,0.29916 0.273357,0.29916 0.215219,0.85231 -0.03797,0.36124 -0.199824,0.66604 -0.156216,0.3048 -0.415519,0.57009 -0.253663,0.26529 -0.583973,0.508 l -0.05814,0.55316 z m -0.151597,1.17404 0.0789,-0.75071 h 0.75071 l -0.0789,0.75071 z" />
      <g
         id="g3985-3-7"
         inkscape:label="text paths"
         style="display:inline"
         transform="translate(-37.221667,-57.647163)">
        <path
           id="path92-3"
           style="font-style:oblique;font-size:25.4px;line-height:1.25;font-family:'Smiley Sans';-inkscape-font-specification:'Smiley Sans Oblique';letter-spacing:-1.32292px;fill:#bed04a;fill-opacity:1;stroke-width:0.264583"
           d="m 71.989928,208.95733 c 1.905,-0.381 3.7338,-0.8382 5.5118,-1.4732 0.0508,0.635 0.0762,1.3208 0.1016,2.0066 l 1.778,-0.5842 c -0.1524,-2.286 -0.4064,-4.3942 -0.8382,-6.7564 l -1.6256,0.3556 c 0.1524,0.9906 0.2794,1.9558 0.381,2.9718 -0.4064,0.1524 -0.8382,0.3048 -1.27,0.4318 l 0.5334,-5.0292 h 2.4638 l 1.0414,-9.7282 c 0.127,-0.9906 -0.2286,-1.7018 -1.397,-1.7018 h -0.7366 l 0.4318,-4.2418 h -2.0574 l -0.4572,4.2418 h -2.286 l -1.1938,11.43 h 2.3114 l -0.5842,5.588 c -0.8382,0.2032 -1.7018,0.4064 -2.5654,0.5588 z m 10.668,-15.4178 0.3048,-2.8448 h 4.775199 l -0.3048,2.8448 h 2.1336 l 0.3302,-2.9972 c 0.1016,-1.2446 -0.5334,-2.0574 -1.8796,-2.0574 h -1.4732 l 0.3302,-2.9464 h -2.184399 l -0.3048,2.9464 h -3.3274 l -0.5334,5.0546 z m -8.382,5.2832 0.762,-7.3406 h 0.8382 l -0.762,7.3406 z m 2.413,0 0.762,-7.3406 h 0.889 l -0.7874,7.3406 z m 10.261599,4.445 c -0.3048,3.1242 -1.346199,4.4704 -2.870199,4.4704 -1.143,0 -1.9558,-0.889 -1.6002,-4.0386 l 0.1778,-1.6002 c 2.7178,-1.4224 4.800599,-3.2004 6.349999,-5.3086 l -1.3462,-1.397 c -1.2192,1.6764 -2.743199,3.0988 -4.749799,4.318 l 0.5588,-5.3594 h -2.0828 l -0.9906,9.4996 c -0.508,4.6736 1.143,5.9944 3.429,5.9944 3.098799,0 4.724399,-2.413 5.130799,-6.2992 z" />
        <path
           id="text157-2-0-7-6"
           style="font-style:oblique;font-size:25.4px;line-height:1.25;font-family:'Smiley Sans';-inkscape-font-specification:'Smiley Sans Oblique';letter-spacing:-1.32292px;fill:#feb30b;fill-opacity:1;stroke-width:0.264583"
           d="m 70.544267,190.84713 c 0.127,-1.2446 -0.508,-2.2352 -2.0066,-2.2352 h -2.3368 c 0.4826,-0.9906 0.8382,-1.9558 1.143,-2.921 l -2.2352,-0.4826 c -0.3556,1.1684 -0.8382,2.286 -1.397,3.4036 h -2.2098 l -2.2098,21.0566 h 9.2456 z m -15.5194,16.637 0.1778,-1.651 h 3.2258 l 1.7526,-16.3068 c 0.127,-1.1684 -0.381,-1.9812 -1.8288,-1.9812 h -3.3528 l -2.0828,19.939 z m 0.381,-3.7338 1.4986,-14.097 h 1.1176 l -1.4986,14.097 z m 7.6962,-8.8138 0.4064,-4.0386 h 4.7752 l -0.4318,4.0386 z m -0.6604,6.1976 0.4318,-4.0132 h 4.7498 l -0.4318,4.0132 z m -0.6604,6.2484 0.4318,-4.064 h 4.7498 l -0.4318,4.064 z m 40.153123,-2.286 0.7366,-9.4742 5.0038,-6.0198 c 0.889,-1.0922 0.2794,-2.7686 -1.3716,-2.7686 H 94.390588 l -0.2794,2.3622 h 10.795002 l -4.572,5.6134 -0.787402,10.033 c -0.1524,1.8796 -0.762,2.4638 -1.6002,2.4638 -0.7874,0 -1.3208,-0.5842 -1.6764,-2.1336 l -2.3622,0.635 c 0.508,2.6416 1.8542,4.0132 3.8608,4.0132 2.667002,0 3.937002,-1.8288 4.165602,-4.7244 z m 19.35266,-15.5448 h -2.0066 l -1.7018,8.6614 h 7.2898 l -0.7112,6.7056 c -0.1778,1.651 -0.8128,2.5654 -1.9304,2.5654 -0.9398,0 -1.5494,-0.6096 -1.905,-2.2352 l -2.2098,0.5334 c 0.3048,2.3622 1.905,4.064 3.937,4.0386 2.8702,-0.0254 3.937,-2.0574 4.2418,-4.7498 l 0.762,-6.9342 c 0.127,-1.1684 -0.2794,-2.0574 -1.7526,-2.0574 h -0.0254 l 1.397,-7.6708 c 0.2286,-1.2446 -0.3556,-2.0828 -1.524,-2.0828 h -6.4516 l -0.2286,2.1082 h 5.9944 l -1.3716,7.6454 h -3.0734 z m -4.0386,-0.6858 c 0.127,-1.143 -0.3556,-1.9558 -1.7272,-1.9558 h -3.4798 l -2.159,20.574 h 1.9812 l 0.1778,-1.651 h 3.3782 z m -4.9784,14.7828 1.524,-14.5542 h 1.4478 l -1.5748,14.5542 z m 11.4554,-3.0988 h -6.7564 l -0.2286,2.2098 h 6.731 z m 9.57366,2.3876 c 0.4318,-4.6228 4.5466,-5.1562 5.6134,-9.4996 0.6858,-2.8448 -0.3302,-5.6134 -3.7592,-5.6896 -2.8702,-0.0762 -4.318,1.8796 -4.9784,4.572 l 2.3622,0.5588 c 0.508,-1.905 1.27,-2.6924 2.2352,-2.6924 1.524,0 1.8542,1.4478 1.397,3.2004 -0.9906,3.7084 -4.572,3.3782 -4.9022,9.5504 z m -1.5494,5.842 c 0.9398,0 1.7018,-0.7112 1.8796,-1.9304 0.1778,-1.1938 -0.4318,-1.905 -1.397,-1.905 -0.9652,0 -1.7526,0.7112 -1.9304,1.905 -0.1778,1.2192 0.4572,1.9304 1.4478,1.9304 z" />
      </g>
      <g
         id="g38-8-5"
         inkscape:label="lesserloong"
         transform="matrix(1.2922955,0,0,1.2922955,-224.13356,-49.553308)">
        <g
           id="g2-0-4-6"
           transform="matrix(0.39464345,0,0,0.39464345,118.99301,88.834095)"
           inkscape:label="snake">
          <path
             style="fill:#96a820;stroke-width:0.5"
             d="m 123.21016,161.77388 c 0,0 4.495,-3.41 11.215,-3.285 9.95,0.19 12.06,4.925 12.06,4.925 l 1.595,7.51 c 0,0 3.005,0.89 3.94,0.985 0.94,0.095 2.77,0.585 4.975,-0.96 2.205,-1.55 1.64,-3.26 2.72,-3.215 1.41,0.06 0.42,4.785 -0.8,6.29 -1.22,1.5 -6.665,4.365 -8.965,4.975 -2.3,0.61 -3.005,1.57 -5.395,1.62 -2.395,0.045 -8.4,-1.57 -8.4,-1.57 l -12.95,-6.1 v -11.175 z"
             id="path1-3-3-3" />
          <path
             style="fill:#70853b;stroke-width:0.5"
             d="m 127.95016,171.62888 c 0,0 1.97,-3.52 5.49,-3.24 3.52,0.28 4.785,2.77 4.785,2.77 l -7.79,2.535 z"
             id="path2-3-6-1-9" />
          <path
             style="fill:#70853b;stroke-width:0.5"
             d="m 146.01516,176.18388 c 2.485,0.8 3.425,0.705 3.425,0.705 0,0 1.455,-1.55 2.065,-2.865 0.61,-1.315 0.68,-2.065 0.68,-2.065 0,0 -0.96,-0.235 -1.855,-0.515 -0.89,-0.28 -2.675,-1.315 -2.675,-1.315 l -2.065,5.68 z"
             id="path3-1-4-4" />
          <path
             style="fill:#bed04a;stroke-width:0.5"
             d="m 124.19516,126.36888 c 7.32,0.35 13.64,6.875 11.475,15.415 -1.62,6.38 -7.255,14.82 -8.66,16.985 -2.58,3.99 -5.35,11.73 2.415,12.555 11.105,1.175 2.905,-4.915 8.335,-8.67 2.85,-1.97 6.095,-1.35 8.185,0.15 2.725,1.96 10.31,23.03 -17.455,21.565 -5.77,-0.305 -10.355,-3.485 -12.88,-5.915 -7.475,-7.18 -1.74,-19.15 -1.265,-20.2 0.63,-1.405 6.54,-9.08 6.12,-11.54 -0.42,-2.465 -2.465,-1.83 -5.28,-2.815 -2.815,-0.985 -5.94,-4.1 -5.07,-8.375 0.81,-3.98 3.88,-9.645 14.08,-9.155 z"
             id="path4-7-0-9-8" />
          <path
             style="fill:#e4dda2;stroke-width:0.5"
             d="m 144.96016,180.74388 c 0,0 1.36,-1.23 1.83,-1.605 0.47,-0.375 2.65,-2.25 2.65,-2.25 0,0 3.465,-0.125 5.865,-1.125 2.98,-1.245 4.715,-4.365 4.95,-5.465 0.125,-0.595 -0.305,5.35 -4.575,8.235 -4.125,2.785 -10.72,2.21 -10.72,2.21 z"
             id="path5-5-6-2-1" />
          <path
             style="fill:#e4dda2;stroke-width:0.5"
             d="m 110.15016,166.94888 c -0.165,6.265 4.955,12.865 9.395,14.64 2.465,0.985 -7.885,-3.835 -7.04,-14.115 0.67,-8.175 8.905,-15.135 9.08,-19.78 0.105,-2.815 -3.38,-3.06 -3.38,-3.06 0,0 1.08,0.81 1.125,1.865 0.07,1.69 -4.295,7.885 -5.21,9.15 -0.905,1.27 -3.825,5.95 -3.97,11.3 z"
             id="path6-9-3-0-2" />
          <path
             style="fill:#ee6d33;stroke-width:0.5"
             d="m 111.38516,138.54888 2.16,2.345 c 0.105,-0.145 -2.36,2.355 -4.645,4.035 -1.53,1.125 -6.24,3.535 -6.49,3.295 -0.315,-0.305 1.14,-1.265 1.935,-1.97 0.605,-0.535 2.11,-1.89 2.11,-1.89 0,0 -1.855,0.2 -2.745,0.2 -0.89,0 -3.165,0.07 -2.955,-0.35 0.165,-0.33 3.44,-0.85 4.67,-1.35 3.705,-1.5 5.96,-4.315 5.96,-4.315 z"
             id="path7-2-2-6-9" />
          <path
             style="fill:#323234;stroke-width:0.5"
             d="m 120.32516,131.11888 c -1.285,0.895 -2.535,0.67 -2.94,-0.08 -0.3,-0.56 -0.385,-1.62 0.8,-2.515 1.045,-0.79 2.385,-0.55 2.875,0.13 0.41,0.575 0.24,1.79 -0.735,2.465 z"
             id="path8-2-0-8-3" />
          <path
             style="fill:#323234;stroke-width:0.5"
             d="m 126.34016,136.94888 c -1.535,0.9 -2.78,0.435 -3.31,-0.38 -0.43,-0.665 -0.33,-2.265 0.915,-2.985 1.29,-0.75 2.72,-0.48 3.27,0.415 0.46,0.75 0.295,2.265 -0.875,2.95 z"
             id="path9-8-6-9-9" />
          <path
             style="fill:#e4dda2;stroke-width:0.5"
             d="m 132.22016,145.25888 c -0.915,2.125 0.915,3.11 0.915,3.11 0,0 0.715,-1.525 1.02,-2.215 0.375,-0.855 0.74,-1.92 0.74,-1.92 0,0 -1.945,-0.675 -2.675,1.025 z"
             id="path10-1-2-0" />
          <path
             style="fill:#e4dda2;stroke-width:0.5"
             d="m 131.30516,151.74388 c 0,0 -1.265,-0.14 -2.395,-0.53 -1.025,-0.355 -2.75,-1.8 -3.8,0.07 -0.97,1.725 0.655,2.675 1.935,3.205 1.195,0.495 2.27,0.67 2.27,0.67 0,0 0.82,-1.375 1.055,-1.76 0.235,-0.385 0.935,-1.655 0.935,-1.655 z"
             id="path11-9-5-6-8" />
          <path
             style="fill:#e4dda2;stroke-width:0.5"
             d="m 127.01016,158.77388 c 0,0 -1.69,-0.095 -2.78,-0.375 -0.955,-0.245 -2.7,-1.41 -3.66,0.105 -0.855,1.35 0.385,2.42 2.04,2.85 1.83,0.475 2.885,0.335 2.885,0.335 0,0 0.44,-0.895 0.615,-1.39 0.185,-0.505 0.9,-1.525 0.9,-1.525 z"
             id="path12-7-5-6-8" />
          <path
             style="fill:#e4dda2;stroke-width:0.5"
             d="m 124.39516,165.19888 c 0,0 -2.04,0.28 -3.025,0.28 -1.02,0 -3.6,-0.24 -3.545,2.135 0.045,2.04 2.81,1.87 3.52,1.855 1.01,-0.025 3.645,-0.5 3.645,-0.5 0,0 -0.45,-0.8 -0.58,-1.92 -0.1,-0.82 -0.015,-1.85 -0.015,-1.85 z"
             id="path13-3-4-4-5" />
          <path
             style="fill:#e4dda2;stroke-width:0.5"
             d="m 126.44516,170.43388 c 0,0 -0.33,1.485 -0.81,2.57 -0.53,1.195 -1.76,3.24 0.74,4.19 2.31,0.88 3.24,-0.775 3.66,-2.64 0.39,-1.735 0.42,-3.15 0.42,-3.15 0,0 -1.22,-0.055 -2.23,-0.285 -0.81,-0.195 -1.78,-0.685 -1.78,-0.685 z"
             id="path14-6-7-9-0" />
          <path
             style="fill:#e4dda2;stroke-width:0.5"
             d="m 134.29516,171.14888 c 0,0 1.655,1.445 2.18,2.18 0.53,0.74 1.735,2.97 3.66,2.005 1.69,-0.845 0.325,-3.425 -0.495,-4.365 -0.685,-0.785 -1.725,-1.64 -2.71,-2.205 -0.66,-0.375 -1.22,-0.47 -1.22,-0.47 0,0 0.115,1.03 -0.19,1.76 -0.32,0.785 -1.225,1.095 -1.225,1.095 z"
             id="path15-1-6-5-9" />
          <path
             style="fill:#e4dda2;stroke-width:0.5"
             d="m 136.48016,166.27888 c 0.17,0.58 0.675,0.605 1.795,0.14 1.195,-0.495 2.815,-0.74 4.155,-0.74 1.585,0 3.13,1.055 3.695,1.515 0.565,0.46 1.245,0.62 1.35,-0.26 0.105,-0.88 -0.53,-1.865 -1.76,-2.745 -0.75,-0.535 -2.09,-1.36 -3.67,-1.395 -1.685,-0.035 -3.24,0.565 -4.225,1.195 -0.61,0.395 -1.625,1.34 -1.34,2.29 z"
             id="path16-2-5-0-6" />
        </g>
        <g
           id="g3-6-4-3"
           transform="matrix(0.11839303,0.11839303,-0.11839303,0.11839303,162.72633,137.68066)"
           inkscape:label="rotated-glasses"
           style="display:inline">
          <path
             id="path18813-6-5-9-9-8-8"
             style="fill:#000000;stroke-width:0.264583"
             d="m 0,-5.29167 v 1.05833 1.05834 h 1.058334 1.058333 v 1.05833 1.05833 H 3.175 4.233334 V 0 1.05833 H 5.291667 6.35 V 2.11666 3.175 h 1.058334 1.058333 v 1.05833 1.05833 h 6.35 6.35 V 4.23333 3.175 H 22.225 23.283334 V 2.11666 1.05833 H 24.341667 25.4 V 0 -1.05834 h 1.058334 1.058333 V -2.11667 -3.175 H 28.575 29.633334 V -4.23334 -5.29167 H 14.816667 Z"
             inkscape:label="glass-bg" />
          <g
             id="g19784-6-3-3-7-5"
             inkscape:label="glass-fg"
             transform="translate(-55,-155.29167)">
            <path
               id="path18979-2-19-7-1-6"
               style="fill:#ffffff;fill-opacity:1;stroke:none;stroke-width:0.264583px;stroke-linecap:butt;stroke-linejoin:miter;stroke-opacity:1"
               d="M 67.699744,156.35015 H 66.64141 65.583077 v 1.05833 1.05833 h 1.058333 1.058334 v -1.05833 z" />
            <path
               id="path19773-9-4-4-7-1"
               style="fill:#ffffff;fill-opacity:1;stroke:none;stroke-width:0.264583px;stroke-linecap:butt;stroke-linejoin:miter;stroke-opacity:1"
               d="m 67.699744,154.23348 v 1.05833 1.05834 h 1.058333 1.058333 v -1.05834 -1.05833 h -1.058333 z" />
            <path
               id="path19769-1-78-5-2-1"
               style="fill:#ffffff;fill-opacity:1;stroke:none;stroke-width:0.264583px;stroke-linecap:butt;stroke-linejoin:miter;stroke-opacity:1"
               d="m 65.583077,154.23348 h 1.058333 1.058334 v -1.05833 -1.05834 H 66.64141 65.583077 v 1.05834 z" />
            <path
               id="path19767-2-4-2-7-5"
               style="fill:#ffffff;fill-opacity:1;stroke:none;stroke-width:0.264583px;stroke-linecap:butt;stroke-linejoin:miter;stroke-opacity:1"
               d="m 63.46641,154.23348 v 1.05833 1.05834 h 1.058334 1.058333 v -1.05834 -1.05833 h -1.058333 z" />
            <path
               id="path19765-7-5-5-2-9"
               style="fill:#ffffff;fill-opacity:1;stroke:none;stroke-width:0.264583px;stroke-linecap:butt;stroke-linejoin:miter;stroke-opacity:1"
               d="m 61.349744,152.11681 v 1.05834 1.05833 h 1.058333 1.058333 v -1.05833 -1.05834 h -1.058333 z" />
          </g>
          <path
             id="path18813-6-5-7-4-2-8"
             style="fill:#000000;stroke-width:0.264583"
             d="m 29.633,-5.29167 v 1.05833 1.05834 h 1.058334 1.058333 v 1.05833 1.05833 H 32.808 33.866334 V 0 1.05833 H 34.924667 35.983 V 2.11666 3.175 h 1.058334 1.058333 v 1.05833 1.05833 h 6.35 6.35 V 4.23333 3.175 H 51.858 52.916334 V 2.11666 1.05833 H 53.974667 55.033 V 0 -1.05834 h 1.058334 1.058333 V -2.11667 -3.175 H 58.208 59.266334 V -4.23334 -5.29167 H 44.449667 Z"
             inkscape:label="glass-bg" />
          <g
             id="g19784-6-0-7-6-4"
             inkscape:label="glass-fg"
             transform="translate(-25.367,-155.29167)">
            <path
               id="path18979-2-9-4-1-8"
               style="fill:#ffffff;fill-opacity:1;stroke:none;stroke-width:0.264583px;stroke-linecap:butt;stroke-linejoin:miter;stroke-opacity:1"
               d="M 67.699744,156.35015 H 66.64141 65.583077 v 1.05833 1.05833 h 1.058333 1.058334 v -1.05833 z" />
            <path
               id="path19773-9-3-4-0-1"
               style="fill:#ffffff;fill-opacity:1;stroke:none;stroke-width:0.264583px;stroke-linecap:butt;stroke-linejoin:miter;stroke-opacity:1"
               d="m 67.699744,154.23348 v 1.05833 1.05834 h 1.058333 1.058333 v -1.05834 -1.05833 h -1.058333 z" />
            <path
               id="path19769-1-6-3-6-0"
               style="fill:#ffffff;fill-opacity:1;stroke:none;stroke-width:0.264583px;stroke-linecap:butt;stroke-linejoin:miter;stroke-opacity:1"
               d="m 65.583077,154.23348 h 1.058333 1.058334 v -1.05833 -1.05834 H 66.64141 65.583077 v 1.05834 z" />
            <path
               id="path19767-2-0-0-1-3"
               style="fill:#ffffff;fill-opacity:1;stroke:none;stroke-width:0.264583px;stroke-linecap:butt;stroke-linejoin:miter;stroke-opacity:1"
               d="m 63.46641,154.23348 v 1.05833 1.05834 h 1.058334 1.058333 v -1.05834 -1.05833 h -1.058333 z" />
            <path
               id="path19765-7-6-7-5-0"
               style="fill:#ffffff;fill-opacity:1;stroke:none;stroke-width:0.264583px;stroke-linecap:butt;stroke-linejoin:miter;stroke-opacity:1"
               d="m 61.349744,152.11681 v 1.05834 1.05833 h 1.058333 1.058333 v -1.05833 -1.05834 h -1.058333 z" />
          </g>
        </g>
      </g>
    </g>
  </g>
  <metadata
     id="metadata7426">
    <rdf:RDF>
      <cc:Work
         rdf:about="">
        <cc:license
           rdf:resource="http://creativecommons.org/licenses/by-nc-sa/4.0/" />
      </cc:Work>
      <cc:License
         rdf:about="http://creativecommons.org/licenses/by-nc-sa/4.0/">
        <cc:permits
           rdf:resource="http://creativecommons.org/ns#Reproduction" />
        <cc:permits
           rdf:resource="http://creativecommons.org/ns#Distribution" />
        <cc:requires
           rdf:resource="http://creativecommons.org/ns#Notice" />
        <cc:requires
           rdf:resource="http://creativecommons.org/ns#Attribution" />
        <cc:prohibits
           rdf:resource="http://creativecommons.org/ns#CommercialUse" />
        <cc:permits
           rdf:resource="http://creativecommons.org/ns#DerivativeWorks" />
        <cc:requires
           rdf:resource="http://creativecommons.org/ns#ShareAlike" />
      </cc:License>
    </rdf:RDF>
  </metadata>
</svg>
